<?xml version="1.0" encoding="UTF-8" ?>
<!DOCTYPE svg PUBLIC "-//W3C//DTD SVG 1.1//EN" "http://www.w3.org/Graphics/SVG/1.1/DTD/svg11.dtd">
<svg width="500pt" height="500pt" viewBox="0 0 500 500" version="1.1" xmlns="http://www.w3.org/2000/svg">
<g id="#120a0436">
<path fill="#120a04" opacity="0.21" d=" M 214.00 121.97 C 214.05 118.73 220.56 121.74 222.96 121.06 L 223.08 122.09 C 220.03 122.02 217.03 122.02 214.00 121.97 Z" />
</g>
<g id="#23150768">
<path fill="#231507" opacity="0.41" d=" M 222.96 121.06 C 228.64 120.91 234.32 120.92 240.00 121.03 L 240.01 122.00 C 238.60 122.08 237.19 122.15 235.78 122.23 C 232.25 122.07 228.73 121.90 225.21 122.21 C 224.68 122.18 223.61 122.12 223.08 122.09 L 222.96 121.06 Z" />
</g>
<g id="#1009032e">
<path fill="#100903" opacity="0.18" d=" M 240.00 121.03 C 243.47 122.10 251.23 118.92 253.01 121.98 C 248.66 122.00 244.34 121.98 240.01 122.00 L 240.00 121.03 Z" />
</g>
<g id="#1e120657">
<path fill="#1e1206" opacity="0.34" d=" M 202.20 123.15 C 201.15 119.70 208.80 122.76 211.01 122.05 L 210.99 123.01 C 208.41 123.04 205.83 123.13 203.27 123.28 L 202.20 123.15 Z" />
</g>
<g id="#3d210bc6">
<path fill="#3d210b" opacity="0.78" d=" M 211.01 122.05 C 211.76 122.03 213.25 121.99 214.00 121.97 C 217.03 122.02 220.03 122.02 223.08 122.09 C 223.61 122.12 224.68 122.18 225.21 122.21 C 220.50 123.01 215.74 123.03 210.99 123.01 L 211.01 122.05 Z" />
</g>
<g id="#4f2c16fe">
<path fill="#4f2c16" opacity="1.00" d=" M 225.21 122.21 C 228.73 121.90 232.25 122.07 235.78 122.23 C 242.13 123.25 248.58 123.04 255.00 123.00 C 258.01 122.99 261.07 122.97 264.10 122.95 C 264.51 123.02 265.32 123.17 265.73 123.24 C 269.45 123.89 273.20 124.15 277.00 123.99 C 279.30 123.91 281.66 123.97 283.73 125.12 L 284.16 125.89 C 283.33 125.96 281.67 126.08 280.83 126.14 C 281.62 127.38 282.69 128.31 284.05 128.91 C 291.88 132.60 299.66 136.40 307.10 140.85 C 310.80 143.30 315.34 144.16 318.84 146.96 C 320.61 150.50 326.05 150.27 328.65 153.35 C 332.87 158.19 340.09 158.14 345.20 161.74 C 344.46 162.80 343.68 163.84 343.00 164.94 C 349.23 167.10 355.41 169.99 360.24 174.61 C 361.89 176.67 363.76 173.97 365.69 174.21 C 367.52 176.50 369.80 178.54 370.49 181.51 C 371.07 181.73 372.25 182.18 372.84 182.40 C 371.68 189.24 374.03 196.07 373.76 202.87 C 372.37 205.25 373.50 208.55 371.13 210.29 C 371.07 201.24 372.36 192.05 369.82 183.15 C 364.61 184.99 360.93 178.35 355.66 180.52 C 351.78 180.09 349.04 176.23 345.78 174.30 C 341.24 172.72 336.92 170.65 332.89 168.05 C 329.71 168.03 326.82 169.86 324.02 171.18 C 323.94 175.01 323.59 179.38 325.97 182.65 C 323.60 182.68 322.05 184.47 322.03 186.79 C 329.19 188.43 334.38 194.58 341.57 196.48 C 343.48 199.10 346.68 199.63 349.58 200.53 C 357.78 206.44 369.66 207.71 375.00 217.12 C 375.40 219.79 373.11 221.75 371.80 223.81 C 368.91 222.79 366.21 220.59 363.03 219.93 C 356.19 214.50 348.36 210.89 340.38 207.57 C 335.65 203.61 329.60 203.36 324.11 201.29 C 320.41 204.74 318.98 211.73 322.16 215.78 C 324.20 215.46 326.08 214.53 328.11 214.12 C 325.10 217.60 327.18 221.79 326.18 225.80 C 328.11 225.25 330.73 225.45 331.18 227.88 C 336.15 234.21 344.93 235.37 351.49 239.49 C 353.81 245.22 362.03 242.72 365.39 247.62 C 366.89 250.33 369.96 248.43 371.86 247.28 C 376.15 249.55 373.71 254.11 374.63 257.91 C 373.91 265.55 374.87 273.32 373.97 280.92 C 371.75 279.96 368.03 279.39 371.07 275.00 C 371.20 270.43 370.96 265.84 369.68 261.44 C 362.55 255.84 352.56 255.44 346.62 248.42 C 342.87 247.24 338.82 246.67 335.41 244.59 C 333.00 241.74 328.94 240.45 325.28 240.49 C 321.02 241.61 321.81 246.14 322.11 249.70 C 323.99 249.82 325.80 250.33 324.73 252.55 C 322.06 253.37 320.51 255.80 318.93 257.93 C 326.12 266.20 337.19 269.27 344.82 277.07 C 348.51 278.72 352.51 280.33 355.56 283.11 C 355.16 285.59 354.17 288.74 357.91 288.30 C 359.34 292.79 352.25 289.87 351.59 293.65 C 350.38 295.15 352.21 296.45 352.74 297.82 C 351.31 299.03 349.20 299.69 348.59 301.64 C 347.31 304.08 349.93 306.88 348.30 309.33 C 347.45 310.70 347.38 312.03 348.81 313.00 C 347.83 315.25 343.22 314.94 343.00 318.02 C 342.74 320.08 340.75 321.08 339.73 322.71 C 344.17 321.47 348.16 323.59 352.23 324.84 C 339.37 324.38 326.68 321.60 313.99 319.97 L 313.01 319.99 L 312.04 320.04 C 311.86 331.02 312.08 341.99 311.98 352.97 C 308.58 359.46 299.21 357.73 293.01 359.08 C 290.70 359.57 288.39 360.22 286.00 360.03 C 282.97 359.97 280.00 359.98 276.99 359.99 C 271.93 360.28 266.65 359.12 261.74 360.72 C 260.50 360.84 259.26 360.94 258.03 361.02 C 246.01 361.01 234.00 360.96 221.99 361.01 C 219.05 360.92 216.14 360.97 213.22 360.78 C 208.51 359.98 203.74 359.94 198.99 360.00 C 168.53 357.72 138.16 351.40 109.86 339.72 C 114.45 338.46 110.53 331.99 112.03 329.01 C 112.95 315.36 110.62 301.82 111.21 288.21 C 115.02 280.30 108.82 270.13 115.12 263.22 C 117.69 264.39 120.30 265.60 121.97 267.99 C 120.78 265.41 122.81 263.61 122.90 261.27 C 121.54 260.36 118.81 258.54 117.45 257.63 C 116.14 255.62 115.36 252.87 112.71 252.29 C 110.64 251.25 107.78 253.99 106.29 251.73 C 104.63 249.22 100.48 247.76 101.70 244.19 C 99.15 242.79 96.09 242.75 93.26 243.14 C 92.09 244.71 91.23 246.52 89.80 247.89 C 90.06 245.88 90.39 243.88 90.75 241.88 C 91.51 238.95 85.63 236.46 88.12 234.15 C 90.55 235.62 92.52 238.06 95.92 237.19 C 98.78 237.49 99.91 240.51 102.30 241.66 C 109.57 243.92 116.19 248.16 123.83 249.25 C 127.52 251.72 131.17 255.48 135.90 253.12 C 141.81 260.05 151.84 256.13 159.43 259.39 C 163.64 260.32 169.23 258.80 171.91 263.10 C 173.81 265.85 177.03 264.32 179.61 264.62 C 182.93 267.38 186.71 263.80 190.36 264.44 C 195.87 262.10 194.60 266.57 195.24 269.04 C 197.11 269.18 198.58 267.41 200.37 267.61 C 206.43 270.79 212.22 265.85 218.41 267.40 C 223.69 271.25 225.43 263.79 229.67 264.09 C 229.81 264.70 230.11 265.92 230.25 266.53 C 234.50 265.88 238.84 267.01 243.02 265.86 C 242.46 263.59 240.96 261.57 240.98 259.17 C 242.35 258.12 245.07 258.41 245.09 256.20 C 237.06 257.65 233.32 248.75 226.26 247.27 C 225.14 248.96 223.43 250.80 221.24 250.51 C 215.76 248.37 210.27 245.11 204.20 245.74 C 201.94 243.95 199.01 244.88 196.35 244.69 C 196.16 239.58 190.97 242.95 188.98 245.06 C 186.67 244.23 185.13 242.07 182.91 241.18 C 180.31 241.32 177.72 241.81 175.14 241.96 C 174.08 240.68 174.48 237.80 172.27 238.05 C 171.90 239.36 172.28 241.60 170.21 240.94 C 169.60 238.50 170.83 234.17 165.39 236.40 C 162.07 235.72 156.02 238.35 155.62 233.14 C 153.52 232.46 151.79 233.91 150.00 234.72 C 145.47 233.19 140.45 232.75 136.71 229.48 C 135.61 227.63 134.37 229.37 133.16 229.67 C 132.20 228.69 131.35 227.61 130.42 226.61 C 125.79 226.01 122.16 221.98 117.34 222.60 C 114.07 220.74 111.57 217.36 107.39 217.47 C 99.49 213.92 93.18 207.99 86.76 202.29 C 83.31 201.13 83.95 196.72 81.06 194.92 C 79.50 193.84 79.21 192.02 79.35 190.27 C 76.65 187.54 74.69 184.06 71.31 182.06 C 70.70 184.15 70.03 186.22 69.20 188.24 C 69.16 187.69 69.09 186.61 69.05 186.07 C 68.46 180.70 72.29 176.20 74.97 171.98 C 81.48 161.05 93.06 155.13 103.36 148.41 C 131.75 134.78 162.66 126.91 193.99 124.03 C 197.08 123.97 200.30 124.38 203.27 123.28 C 205.83 123.13 208.41 123.04 210.99 123.01 C 215.74 123.03 220.50 123.01 225.21 122.21 M 280.19 143.21 C 279.62 150.38 280.07 157.63 280.10 164.82 C 281.49 165.93 283.12 166.78 284.88 167.12 C 286.83 170.42 291.32 169.52 294.03 171.84 C 295.51 175.81 301.19 175.39 304.20 177.84 C 306.36 179.94 309.60 181.46 312.64 180.77 C 313.08 177.91 317.58 178.06 317.02 175.00 C 316.87 171.40 315.55 167.76 316.90 164.26 C 315.22 164.27 315.14 163.38 315.74 162.10 C 314.66 160.81 312.85 161.14 311.40 160.64 C 310.38 158.34 307.80 157.59 306.26 155.76 C 304.69 154.00 303.98 150.83 300.21 152.78 C 298.68 151.64 299.36 149.32 297.75 148.26 C 296.12 147.79 294.49 147.23 292.78 147.16 C 290.86 145.42 288.55 143.36 285.74 144.23 C 283.94 143.88 281.47 140.89 280.19 143.21 M 280.06 179.99 C 279.81 185.92 280.17 191.86 279.89 197.80 C 278.31 198.51 276.64 198.94 274.93 199.14 C 274.06 198.50 273.11 198.15 272.08 198.06 C 271.75 197.61 271.09 196.70 270.76 196.24 C 261.56 194.34 252.39 191.49 242.96 191.01 C 242.78 194.25 245.88 198.81 249.53 197.52 C 253.98 201.36 258.04 205.82 263.24 208.68 C 263.95 212.77 268.54 216.95 273.20 216.84 C 274.51 217.80 275.38 219.48 277.00 219.92 C 278.44 223.18 282.19 224.92 285.01 226.87 C 285.98 229.32 288.62 230.80 290.66 232.36 C 293.46 236.34 298.79 237.33 301.75 241.24 C 303.41 243.78 307.34 243.53 308.39 246.65 C 309.25 249.55 313.86 247.37 313.59 245.29 C 310.66 242.62 312.48 238.48 312.71 235.09 C 308.67 233.58 305.41 230.69 302.78 227.27 C 297.54 227.57 295.62 221.43 290.82 220.25 C 286.26 218.21 279.51 215.62 281.88 208.97 L 280.95 209.04 C 281.09 206.25 279.57 201.38 283.29 203.54 C 283.42 205.42 286.22 206.16 286.83 208.20 C 288.86 211.88 293.58 209.26 296.20 211.80 C 301.35 216.03 308.15 218.74 314.79 218.87 C 319.20 215.65 309.91 209.22 316.80 207.66 C 316.99 203.32 315.74 198.64 312.33 195.71 C 312.76 192.25 310.12 191.00 307.08 190.84 C 302.37 188.18 297.92 182.38 291.81 183.07 C 288.80 180.07 284.10 179.51 280.06 179.99 M 313.21 259.13 C 310.88 260.70 312.53 263.81 312.41 266.23 C 311.96 270.50 313.73 274.86 312.01 279.00 C 312.82 282.21 313.70 285.40 312.92 288.81 C 310.43 290.55 306.89 290.10 304.66 292.61 C 297.51 293.68 290.56 295.68 283.49 297.44 C 281.92 299.61 279.06 301.04 276.24 299.84 C 273.20 297.22 271.40 293.35 267.75 291.47 C 264.85 291.22 261.70 292.39 259.06 291.03 C 257.78 290.72 258.08 288.35 256.35 289.21 C 254.61 294.23 247.95 288.93 245.73 293.74 C 243.28 293.16 240.97 292.92 238.78 294.52 C 232.85 292.79 229.38 299.40 225.01 302.02 C 220.62 298.82 215.29 297.15 210.81 294.14 C 207.99 290.75 203.41 289.87 200.75 286.26 C 198.21 283.25 192.25 286.01 191.28 281.71 C 188.62 279.05 194.71 273.03 186.39 275.56 C 182.82 272.01 176.59 275.46 175.71 279.85 C 172.45 281.51 172.80 276.77 170.09 276.92 C 171.49 281.02 169.84 284.88 169.11 288.82 C 170.07 290.35 171.82 289.44 173.27 289.72 C 177.29 290.67 179.66 286.44 182.22 284.20 C 186.42 283.89 190.34 285.98 192.01 290.00 C 193.71 293.79 198.30 294.06 201.74 295.31 C 204.25 299.86 209.65 301.20 213.31 304.62 C 215.28 304.92 218.57 302.59 218.84 306.10 C 218.12 306.07 216.67 306.02 215.95 306.00 C 216.60 309.98 217.38 313.95 218.17 317.92 C 221.28 318.92 219.65 314.51 220.25 312.77 C 221.44 315.40 222.24 320.06 225.83 319.94 C 228.90 315.49 227.44 309.38 231.06 305.09 C 241.39 303.07 250.93 296.98 261.71 297.39 C 265.44 297.67 267.42 300.99 269.20 303.84 C 272.70 303.55 278.36 303.68 276.26 308.38 C 275.21 307.52 274.18 306.65 273.06 305.90 C 272.87 311.59 272.97 317.29 273.01 322.99 L 273.97 323.01 C 274.00 323.72 274.06 325.13 274.09 325.84 C 274.33 327.72 272.91 331.05 275.65 331.43 C 278.00 333.15 276.72 329.07 277.10 327.82 C 277.76 328.53 278.43 329.24 279.12 329.94 C 277.93 332.83 281.06 331.97 282.83 331.89 C 285.20 326.26 285.25 319.89 284.01 314.05 C 286.00 311.75 286.53 308.62 288.24 306.26 C 294.91 305.13 300.84 301.71 307.50 300.55 C 308.79 298.76 310.95 297.96 312.89 297.08 C 314.49 302.71 310.89 309.38 314.32 314.71 C 316.62 318.68 322.14 317.70 325.99 316.87 C 325.18 315.67 324.00 314.64 323.93 313.10 C 326.21 313.69 328.51 313.28 330.77 312.77 C 332.91 310.08 331.34 307.01 330.95 304.08 C 332.47 304.03 335.53 303.94 337.05 303.90 C 338.00 300.02 330.92 301.97 332.14 298.20 C 333.26 296.07 335.89 299.26 336.85 296.79 C 337.32 294.19 335.62 291.68 336.97 289.14 C 331.42 290.88 330.91 282.63 335.05 281.10 C 337.28 280.93 339.78 276.38 338.11 274.97 C 334.88 269.16 326.57 268.05 321.69 263.37 C 318.41 262.77 316.71 258.35 313.21 259.13 M 137.33 261.28 C 133.68 265.11 127.91 266.62 125.02 271.11 C 125.47 273.72 126.62 276.16 127.33 278.72 C 131.07 281.98 133.83 277.23 135.05 274.08 C 137.02 272.61 136.94 269.19 139.97 269.23 C 142.54 270.41 145.27 268.91 147.35 267.39 C 149.27 266.12 152.67 267.29 151.95 270.01 C 151.20 270.01 149.70 270.02 148.94 270.02 C 149.66 273.98 150.63 277.89 150.04 282.00 L 150.96 281.99 C 151.12 290.22 150.61 298.51 151.37 306.70 C 150.56 311.16 151.13 315.74 151.26 320.25 C 151.41 321.49 149.98 324.40 152.15 324.28 C 152.21 325.97 154.07 326.27 154.95 324.91 C 155.19 325.18 155.69 325.73 155.93 326.01 C 158.89 326.70 159.05 323.31 159.39 321.30 C 162.34 311.77 162.46 301.89 161.99 292.01 C 164.97 292.31 162.26 287.12 164.57 285.73 C 164.14 283.11 162.96 280.51 164.08 277.89 C 165.82 280.41 165.32 285.86 169.02 286.03 C 169.19 281.82 166.98 278.01 165.79 274.08 C 164.70 273.93 163.79 274.27 163.07 275.10 C 161.16 269.91 169.61 276.20 167.88 272.10 C 166.55 267.82 162.26 261.76 157.04 263.99 C 155.06 264.12 155.46 267.60 153.14 266.98 C 152.07 265.49 149.93 262.53 148.87 261.05 C 144.99 261.12 141.29 262.54 137.33 261.28 M 116.95 266.97 C 117.91 271.37 120.12 277.27 124.99 278.05 C 124.91 276.61 125.42 274.85 124.27 273.71 C 121.75 271.74 120.71 266.79 116.95 266.97 Z" />
<path fill="#4f2c16" opacity="1.00" d=" M 435.21 170.41 C 441.74 169.54 446.50 164.06 452.96 162.81 C 453.02 166.20 452.97 169.58 452.97 172.99 C 452.92 173.44 452.83 174.33 452.78 174.78 C 452.06 178.81 451.97 182.91 451.98 187.00 C 451.92 189.99 451.98 193.01 452.00 196.00 C 451.99 198.62 451.98 201.25 451.97 203.88 L 451.87 204.78 C 448.99 209.02 447.29 213.91 445.67 218.74 C 443.75 225.31 443.46 232.24 442.52 238.99 C 443.17 242.41 442.58 245.79 441.02 248.95 C 440.27 242.81 441.50 236.39 439.59 230.44 C 440.27 229.63 441.66 228.61 440.45 227.55 C 437.97 224.76 438.70 220.58 437.71 217.26 C 435.50 213.91 431.26 213.50 427.88 211.96 C 430.76 217.53 434.85 223.18 433.71 229.93 C 433.16 237.14 433.99 244.19 436.32 250.98 C 437.94 250.43 439.43 249.59 441.02 248.95 C 440.49 250.26 440.02 251.61 439.92 253.03 C 444.56 253.93 446.85 247.59 445.95 244.00 C 445.27 239.00 445.64 234.09 447.58 229.41 C 449.41 225.01 448.46 219.36 451.87 215.75 C 451.98 221.83 451.97 227.92 452.01 234.00 C 451.96 239.98 452.02 245.97 451.99 251.96 C 450.95 254.97 448.57 257.19 446.08 259.07 C 435.71 268.58 422.41 273.89 411.01 281.98 C 410.69 282.43 410.07 283.33 409.75 283.77 C 401.80 285.36 394.19 288.79 386.70 291.92 C 380.61 289.13 381.38 281.75 381.63 276.25 C 383.39 271.75 384.29 265.75 381.07 261.83 C 381.14 260.34 382.34 259.24 382.84 257.89 C 381.96 251.39 378.75 245.05 380.53 238.40 C 381.01 234.53 381.45 230.64 383.08 227.06 C 390.44 224.86 398.35 226.66 405.92 225.91 C 411.93 222.49 416.35 216.79 419.98 211.00 C 421.85 208.23 425.34 209.57 428.19 209.65 C 426.99 203.90 419.13 205.82 417.12 210.11 C 413.09 216.98 406.61 223.82 398.10 223.74 C 393.18 223.21 388.25 222.91 383.31 223.04 C 380.33 222.25 381.65 219.53 381.44 217.33 C 378.45 210.64 380.44 203.05 380.07 196.00 C 379.91 191.56 382.48 187.41 381.04 182.99 C 385.50 183.49 390.10 184.04 394.54 183.20 C 397.03 181.36 400.27 183.01 403.08 182.16 C 407.03 180.75 411.13 181.33 415.21 181.77 C 413.66 179.99 410.27 180.00 409.94 177.30 C 418.54 175.90 427.94 175.86 435.21 170.41 Z" />
</g>
<g id="#3e220bcc">
<path fill="#3e220b" opacity="0.80" d=" M 235.78 122.23 C 237.19 122.15 238.60 122.08 240.01 122.00 C 244.34 121.98 248.66 122.00 253.01 121.98 C 253.50 121.99 254.50 122.01 255.00 122.03 L 255.00 123.00 C 248.58 123.04 242.13 123.25 235.78 122.23 Z" />
</g>
<g id="#2b180a88">
<path fill="#2b180a" opacity="0.53" d=" M 255.00 122.03 C 258.01 121.96 261.14 121.69 264.13 122.33 L 264.10 122.95 C 261.07 122.97 258.01 122.99 255.00 123.00 L 255.00 122.03 Z" />
</g>
<g id="#150c053e">
<path fill="#150c05" opacity="0.24" d=" M 264.13 122.33 C 266.04 121.83 269.60 121.25 270.82 122.84 C 269.12 122.97 267.42 123.11 265.73 123.24 C 265.32 123.17 264.51 123.02 264.10 122.95 L 264.13 122.33 Z" />
</g>
<g id="#2f1b0c97">
<path fill="#2f1b0c" opacity="0.59" d=" M 193.99 124.03 C 193.58 120.54 200.02 123.70 202.20 123.15 L 203.27 123.28 C 200.30 124.38 197.08 123.97 193.99 124.03 Z" />
</g>
<g id="#321c0ca0">
<path fill="#321c0c" opacity="0.63" d=" M 265.73 123.24 C 267.42 123.11 269.12 122.97 270.82 122.84 C 272.36 123.13 275.45 123.71 277.00 123.99 C 273.20 124.15 269.45 123.89 265.73 123.24 Z" />
</g>
<g id="#311b0da5">
<path fill="#311b0d" opacity="0.65" d=" M 283.73 125.12 C 292.92 124.85 301.89 127.26 310.99 128.18 L 310.77 129.19 C 301.83 128.69 293.05 126.88 284.16 125.89 L 283.73 125.12 Z" />
</g>
<g id="#64442ffe">
<path fill="#64442f" opacity="1.00" d=" M 280.83 126.14 C 281.67 126.08 283.33 125.96 284.16 125.89 C 293.05 126.88 301.83 128.69 310.77 129.19 C 313.44 129.75 316.17 130.37 318.82 131.08 C 325.70 132.25 332.30 134.62 338.93 136.58 C 339.84 139.43 337.93 140.32 335.40 140.44 C 333.76 142.99 331.75 145.44 331.66 148.68 C 327.22 151.04 323.14 147.93 318.84 146.96 C 315.34 144.16 310.80 143.30 307.10 140.85 C 299.66 136.40 291.88 132.60 284.05 128.91 C 282.69 128.31 281.62 127.38 280.83 126.14 Z" />
</g>
<g id="#321d0da5">
<path fill="#321d0d" opacity="0.65" d=" M 310.77 129.19 C 313.87 130.12 321.18 127.83 323.03 131.00 C 321.62 131.04 320.22 131.07 318.82 131.08 C 316.17 130.37 313.44 129.75 310.77 129.19 Z" />
</g>
<g id="#57351efb">
<path fill="#57351e" opacity="1.00" d=" M 318.82 131.08 C 320.22 131.07 321.62 131.04 323.03 131.00 C 340.69 133.49 358.22 137.44 376.03 139.17 L 376.31 140.16 C 375.57 142.74 373.27 144.08 370.82 144.70 C 365.62 144.15 359.39 146.06 356.99 151.08 C 357.38 153.11 359.52 154.86 357.85 156.92 C 355.84 156.51 354.08 154.59 352.03 156.13 C 353.61 158.28 353.44 162.41 356.71 162.70 C 359.52 162.83 359.85 166.08 361.00 168.07 C 355.66 168.84 351.53 165.39 348.22 161.78 C 347.46 160.66 346.16 161.51 345.20 161.74 C 340.09 158.14 332.87 158.19 328.65 153.35 C 326.05 150.27 320.61 150.50 318.84 146.96 C 323.14 147.93 327.22 151.04 331.66 148.68 C 331.75 145.44 333.76 142.99 335.40 140.44 C 337.93 140.32 339.84 139.43 338.93 136.58 C 332.30 134.62 325.70 132.25 318.82 131.08 Z" />
</g>
<g id="#4e2c16fb">
<path fill="#4e2c16" opacity="1.00" d=" M 376.31 140.16 C 384.88 139.74 393.26 142.24 401.71 143.34 C 413.85 144.85 426.05 145.98 438.04 148.49 C 440.27 149.18 442.53 149.35 444.82 149.00 C 446.65 148.50 447.72 148.83 448.03 149.99 C 447.58 150.02 446.68 150.07 446.23 150.10 C 442.92 150.33 438.96 150.09 436.27 152.30 C 432.31 156.08 425.74 154.75 422.09 159.08 C 420.42 161.82 416.85 161.18 414.11 161.35 C 409.17 162.11 405.51 166.69 400.25 166.13 C 397.52 166.26 394.74 167.01 392.24 165.54 C 389.97 166.96 387.95 168.92 385.29 169.57 C 383.75 168.92 382.30 168.09 380.77 167.46 C 378.46 167.66 376.44 169.05 374.21 169.60 C 372.74 168.81 370.69 168.50 369.85 166.97 C 370.76 165.44 372.12 164.21 373.55 163.17 C 374.32 164.36 375.75 167.61 377.02 165.02 C 380.42 162.35 379.03 157.69 381.40 154.49 C 383.17 153.64 384.97 152.79 386.63 151.71 C 386.23 149.65 386.63 147.68 387.83 145.95 C 382.27 145.33 376.42 145.57 370.82 144.70 C 373.27 144.08 375.57 142.74 376.31 140.16 Z" />
</g>
<g id="#361d0dff">
<path fill="#361d0d" opacity="1.00" d=" M 280.19 143.21 C 281.47 140.89 283.94 143.88 285.74 144.23 C 289.77 146.37 293.14 149.49 296.74 152.26 C 296.16 157.75 290.46 162.19 292.66 168.14 C 289.96 168.07 287.47 167.66 284.88 167.12 C 283.12 166.78 281.49 165.93 280.10 164.82 C 280.07 157.63 279.62 150.38 280.19 143.21 Z" />
</g>
<g id="#3f220fff">
<path fill="#3f220f" opacity="1.00" d=" M 285.74 144.23 C 288.55 143.36 290.86 145.42 292.78 147.16 C 295.52 148.88 298.17 150.41 299.26 153.66 C 302.94 153.46 304.65 156.67 306.53 159.25 C 306.27 164.52 305.58 169.77 304.87 175.01 C 300.87 175.31 297.68 172.85 294.03 171.84 C 291.32 169.52 286.83 170.42 284.88 167.12 C 287.47 167.66 289.96 168.07 292.66 168.14 C 290.46 162.19 296.16 157.75 296.74 152.26 C 293.14 149.49 289.77 146.37 285.74 144.23 Z" />
</g>
<g id="#543017ff">
<path fill="#543017" opacity="1.00" d=" M 356.99 151.08 C 359.39 146.06 365.62 144.15 370.82 144.70 C 376.42 145.57 382.27 145.33 387.83 145.95 C 386.63 147.68 386.23 149.65 386.63 151.71 C 384.97 152.79 383.17 153.64 381.40 154.49 C 379.03 157.69 380.42 162.35 377.02 165.02 C 375.75 167.61 374.32 164.36 373.55 163.17 C 372.12 164.21 370.76 165.44 369.85 166.97 C 370.69 168.50 372.74 168.81 374.21 169.60 C 376.44 169.05 378.46 167.66 380.77 167.46 C 382.30 168.09 383.75 168.92 385.29 169.57 C 387.95 168.92 389.97 166.96 392.24 165.54 C 394.74 167.01 397.52 166.26 400.25 166.13 C 396.43 171.80 385.83 169.25 383.11 176.75 C 384.87 178.05 386.64 179.34 388.43 180.62 C 395.63 180.66 403.94 182.42 409.94 177.30 C 410.27 180.00 413.66 179.99 415.21 181.77 C 411.13 181.33 407.03 180.75 403.08 182.16 C 400.27 183.01 397.03 181.36 394.54 183.20 C 390.10 184.04 385.50 183.49 381.04 182.99 C 382.48 187.41 379.91 191.56 380.07 196.00 C 380.44 203.05 378.45 210.64 381.44 217.33 C 381.65 219.53 380.33 222.25 383.31 223.04 C 380.65 223.58 379.53 225.65 379.08 228.15 C 380.44 227.94 381.78 227.55 383.08 227.06 C 381.45 230.64 381.01 234.53 380.53 238.40 C 378.75 245.05 381.96 251.39 382.84 257.89 C 382.34 259.24 381.14 260.34 381.07 261.83 C 384.29 265.75 383.39 271.75 381.63 276.25 C 381.38 281.75 380.61 289.13 386.70 291.92 C 386.63 292.42 386.50 293.42 386.43 293.92 C 386.34 294.38 386.15 295.30 386.06 295.75 C 382.47 293.66 378.19 292.83 374.12 292.22 C 371.90 293.34 369.38 293.82 367.30 295.19 C 368.02 302.24 365.68 308.95 364.49 315.78 C 365.46 318.40 367.59 320.82 366.94 323.81 C 364.95 324.35 362.81 326.32 360.80 325.17 C 358.43 323.63 355.65 325.20 353.07 325.07 L 352.23 324.84 C 348.16 323.59 344.17 321.47 339.73 322.71 C 340.75 321.08 342.74 320.08 343.00 318.02 C 343.22 314.94 347.83 315.25 348.81 313.00 C 347.38 312.03 347.45 310.70 348.30 309.33 C 349.93 306.88 347.31 304.08 348.59 301.64 C 349.20 299.69 351.31 299.03 352.74 297.82 C 352.21 296.45 350.38 295.15 351.59 293.65 C 352.25 289.87 359.34 292.79 357.91 288.30 C 354.17 288.74 355.16 285.59 355.56 283.11 C 352.51 280.33 348.51 278.72 344.82 277.07 C 337.19 269.27 326.12 266.20 318.93 257.93 C 320.51 255.80 322.06 253.37 324.73 252.55 C 325.80 250.33 323.99 249.82 322.11 249.70 C 321.81 246.14 321.02 241.61 325.28 240.49 C 328.94 240.45 333.00 241.74 335.41 244.59 C 338.82 246.67 342.87 247.24 346.62 248.42 C 352.56 255.44 362.55 255.84 369.68 261.44 C 370.96 265.84 371.20 270.43 371.07 275.00 C 368.03 279.39 371.75 279.96 373.97 280.92 C 374.87 273.32 373.91 265.55 374.63 257.91 C 373.71 254.11 376.15 249.55 371.86 247.28 C 369.96 248.43 366.89 250.33 365.39 247.62 C 362.03 242.72 353.81 245.22 351.49 239.49 C 344.93 235.37 336.15 234.21 331.18 227.88 C 330.73 225.45 328.11 225.25 326.18 225.80 C 327.18 221.79 325.10 217.60 328.11 214.12 C 326.08 214.53 324.20 215.46 322.16 215.78 C 318.98 211.73 320.41 204.74 324.11 201.29 C 329.60 203.36 335.65 203.61 340.38 207.57 C 348.36 210.89 356.19 214.50 363.03 219.93 C 357.94 220.30 354.02 216.43 349.91 214.03 C 346.99 214.00 345.02 218.63 346.07 221.04 C 346.21 224.99 342.74 228.92 345.18 232.71 C 347.73 231.72 349.27 233.25 348.30 235.81 C 353.77 241.00 362.10 241.08 366.86 247.18 C 369.24 250.23 372.09 243.41 370.01 242.01 C 369.15 235.96 371.93 228.93 368.72 223.38 C 366.27 223.21 364.12 222.24 363.03 219.93 C 366.21 220.59 368.91 222.79 371.80 223.81 C 373.11 221.75 375.40 219.79 375.00 217.12 C 369.66 207.71 357.78 206.44 349.58 200.53 C 346.68 199.63 343.48 199.10 341.57 196.48 C 334.38 194.58 329.19 188.43 322.03 186.79 C 322.05 184.47 323.60 182.68 325.97 182.65 C 323.59 179.38 323.94 175.01 324.02 171.18 C 326.82 169.86 329.71 168.03 332.89 168.05 C 336.92 170.65 341.24 172.72 345.78 174.30 C 349.04 176.23 351.78 180.09 355.66 180.52 C 360.93 178.35 364.61 184.99 369.82 183.15 C 372.36 192.05 371.07 201.24 371.13 210.29 C 373.50 208.55 372.37 205.25 373.76 202.87 C 374.03 196.07 371.68 189.24 372.84 182.40 C 372.25 182.18 371.07 181.73 370.49 181.51 C 369.80 178.54 367.52 176.50 365.69 174.21 C 363.76 173.97 361.89 176.67 360.24 174.61 C 355.41 169.99 349.23 167.10 343.00 164.94 C 343.68 163.84 344.46 162.80 345.20 161.74 C 346.16 161.51 347.46 160.66 348.22 161.78 C 351.53 165.39 355.66 168.84 361.00 168.07 C 359.85 166.08 359.52 162.83 356.71 162.70 C 353.44 162.41 353.61 158.28 352.03 156.13 C 354.08 154.59 355.84 156.51 357.85 156.92 C 359.52 154.86 357.38 153.11 356.99 151.08 M 350.20 181.31 C 348.35 181.96 349.32 183.94 349.40 185.36 C 353.64 191.26 343.45 191.67 345.12 196.77 C 351.89 199.14 357.44 204.60 364.79 205.26 C 366.16 206.57 366.45 209.50 368.88 209.02 C 369.99 201.02 369.12 192.98 368.90 184.96 C 366.31 185.53 363.82 186.54 361.19 186.88 C 358.44 185.90 362.72 181.98 359.02 182.95 C 348.40 177.45 358.64 187.67 353.09 185.96 C 350.86 186.15 352.27 180.69 350.20 181.31 M 349.27 255.08 C 348.88 257.19 347.89 259.10 347.07 261.06 C 347.04 262.85 349.68 266.94 346.15 265.96 C 346.53 260.85 342.73 263.97 344.99 268.86 C 342.44 266.43 340.50 273.19 344.00 273.00 C 348.79 274.07 351.40 281.84 356.79 279.04 C 356.40 282.57 360.22 283.44 362.22 285.57 C 364.43 284.76 366.62 285.33 368.81 285.89 C 370.11 285.07 370.24 283.45 369.81 282.10 C 367.82 275.72 369.66 268.88 368.81 262.35 C 365.10 260.80 362.00 257.83 358.03 257.02 C 354.07 259.47 352.63 254.11 349.27 255.08 Z" />
</g>
<g id="#472712ff">
<path fill="#472712" opacity="1.00" d=" M 292.78 147.16 C 294.49 147.23 296.12 147.79 297.75 148.26 C 299.36 149.32 298.68 151.64 300.21 152.78 C 303.98 150.83 304.69 154.00 306.26 155.76 C 307.80 157.59 310.38 158.34 311.40 160.64 C 312.85 161.14 314.66 160.81 315.74 162.10 C 315.14 163.38 315.22 164.27 316.90 164.26 C 315.55 167.76 316.87 171.40 317.02 175.00 C 317.58 178.06 313.08 177.91 312.64 180.77 C 309.60 181.46 306.36 179.94 304.20 177.84 C 301.19 175.39 295.51 175.81 294.03 171.84 C 297.68 172.85 300.87 175.31 304.87 175.01 C 305.58 169.77 306.27 164.52 306.53 159.25 C 304.65 156.67 302.94 153.46 299.26 153.66 C 298.17 150.41 295.52 148.88 292.78 147.16 Z" />
</g>
<g id="#321e0e8c">
<path fill="#321e0e" opacity="0.55" d=" M 438.04 148.49 C 439.83 147.63 444.06 146.77 444.82 149.00 C 442.53 149.35 440.27 149.18 438.04 148.49 Z" />
</g>
<g id="#54341dfe">
<path fill="#54341d" opacity="1.00" d=" M 436.27 152.30 C 438.96 150.09 442.92 150.33 446.23 150.10 C 435.93 157.15 424.38 161.98 413.06 167.08 C 411.16 168.95 405.67 170.85 409.18 173.89 C 417.61 173.29 424.93 168.78 433.12 167.22 C 437.27 166.64 440.24 163.19 444.34 162.39 C 449.54 161.41 454.27 155.66 450.17 150.83 C 451.83 150.93 453.49 152.13 453.02 153.99 C 452.97 156.91 453.01 159.87 452.96 162.81 C 446.50 164.06 441.74 169.54 435.21 170.41 C 427.94 175.86 418.54 175.90 409.94 177.30 C 403.94 182.42 395.63 180.66 388.43 180.62 C 386.64 179.34 384.87 178.05 383.11 176.75 C 385.83 169.25 396.43 171.80 400.25 166.13 C 405.51 166.69 409.17 162.11 414.11 161.35 C 416.85 161.18 420.42 161.82 422.09 159.08 C 425.74 154.75 432.31 156.08 436.27 152.30 Z" />
</g>
<g id="#5d3c27ff">
<path fill="#5d3c27" opacity="1.00" d=" M 446.23 150.10 C 446.68 150.07 447.58 150.02 448.03 149.99 C 448.56 150.20 449.63 150.62 450.17 150.83 C 454.27 155.66 449.54 161.41 444.34 162.39 C 440.24 163.19 437.27 166.64 433.12 167.22 C 424.93 168.78 417.61 173.29 409.18 173.89 C 405.67 170.85 411.16 168.95 413.06 167.08 C 424.38 161.98 435.93 157.15 446.23 150.10 Z" />
</g>
<g id="#321d0d97">
<path fill="#321d0d" opacity="0.59" d=" M 453.02 153.99 L 453.98 154.01 C 453.96 160.33 454.18 166.67 453.94 172.99 L 452.97 172.99 C 452.97 169.58 453.02 166.20 452.96 162.81 C 453.01 159.87 452.97 156.91 453.02 153.99 Z" />
</g>
<g id="#1e12065a">
<path fill="#1e1206" opacity="0.35" d=" M 452.97 172.99 L 453.94 172.99 C 454.06 176.99 454.08 180.99 453.98 185.00 L 453.02 185.01 C 452.96 181.58 452.97 178.19 452.78 174.78 C 452.83 174.33 452.92 173.44 452.97 172.99 Z" />
</g>
<g id="#42240bde">
<path fill="#42240b" opacity="0.87" d=" M 451.98 187.00 C 451.97 182.91 452.06 178.81 452.78 174.78 C 452.97 178.19 452.96 181.58 453.02 185.01 C 453.01 185.50 452.99 186.49 452.98 186.99 L 451.98 187.00 Z" />
</g>
<g id="#381e0dff">
<path fill="#381e0d" opacity="1.00" d=" M 280.06 179.99 C 284.10 179.51 288.80 180.07 291.81 183.07 C 292.08 183.29 292.63 183.74 292.90 183.97 C 292.73 185.96 293.61 188.32 296.01 187.44 C 295.34 190.47 296.29 194.56 293.61 196.60 C 291.93 197.69 291.43 199.78 291.07 201.63 C 294.41 201.64 295.42 205.15 295.02 207.94 C 293.49 207.98 290.44 208.07 288.92 208.11 C 287.35 206.22 286.03 203.76 283.29 203.54 C 279.57 201.38 281.09 206.25 280.95 209.04 C 280.56 211.43 278.63 214.81 281.70 216.33 C 284.35 219.43 288.45 220.29 291.90 222.14 C 294.49 225.55 297.36 229.48 297.08 234.01 C 292.54 232.55 289.33 228.71 285.01 226.87 C 282.19 224.92 278.44 223.18 277.00 219.92 C 278.71 220.24 280.40 220.65 282.13 220.93 C 279.41 215.17 276.78 208.19 279.75 202.07 C 278.37 200.76 276.59 200.02 274.93 199.14 C 276.64 198.94 278.31 198.51 279.89 197.80 C 280.17 191.86 279.81 185.92 280.06 179.99 Z" />
</g>
<g id="#5b3219ff">
<path fill="#5b3219" opacity="1.00" d=" M 350.20 181.31 C 352.27 180.69 350.86 186.15 353.09 185.96 C 358.64 187.67 348.40 177.45 359.02 182.95 C 362.72 181.98 358.44 185.90 361.19 186.88 C 363.82 186.54 366.31 185.53 368.90 184.96 C 369.12 192.98 369.99 201.02 368.88 209.02 C 366.45 209.50 366.16 206.57 364.79 205.26 C 357.44 204.60 351.89 199.14 345.12 196.77 C 343.45 191.67 353.64 191.26 349.40 185.36 C 349.32 183.94 348.35 181.96 350.20 181.31 Z" />
</g>
<g id="#53301aff">
<path fill="#53301a" opacity="1.00" d=" M 71.31 182.06 C 74.69 184.06 76.65 187.54 79.35 190.27 C 79.21 192.02 79.50 193.84 81.06 194.92 C 83.95 196.72 83.31 201.13 86.76 202.29 C 93.18 207.99 99.49 213.92 107.39 217.47 C 111.57 217.36 114.07 220.74 117.34 222.60 C 122.16 221.98 125.79 226.01 130.42 226.61 C 131.35 227.61 132.20 228.69 133.16 229.67 C 134.37 229.37 135.61 227.63 136.71 229.48 C 140.45 232.75 145.47 233.19 150.00 234.72 C 151.79 233.91 153.52 232.46 155.62 233.14 C 156.02 238.35 162.07 235.72 165.39 236.40 C 170.83 234.17 169.60 238.50 170.21 240.94 C 172.28 241.60 171.90 239.36 172.27 238.05 C 174.48 237.80 174.08 240.68 175.14 241.96 C 177.72 241.81 180.31 241.32 182.91 241.18 C 185.13 242.07 186.67 244.23 188.98 245.06 C 190.97 242.95 196.16 239.58 196.35 244.69 C 199.01 244.88 201.94 243.95 204.20 245.74 C 210.27 245.11 215.76 248.37 221.24 250.51 C 223.43 250.80 225.14 248.96 226.26 247.27 C 233.32 248.75 237.06 257.65 245.09 256.20 C 245.07 258.41 242.35 258.12 240.98 259.17 C 240.96 261.57 242.46 263.59 243.02 265.86 C 238.84 267.01 234.50 265.88 230.25 266.53 C 230.11 265.92 229.81 264.70 229.67 264.09 C 225.43 263.79 223.69 271.25 218.41 267.40 C 212.22 265.85 206.43 270.79 200.37 267.61 C 198.58 267.41 197.11 269.18 195.24 269.04 C 194.60 266.57 195.87 262.10 190.36 264.44 C 186.71 263.80 182.93 267.38 179.61 264.62 C 177.03 264.32 173.81 265.85 171.91 263.10 C 169.23 258.80 163.64 260.32 159.43 259.39 C 151.84 256.13 141.81 260.05 135.90 253.12 C 131.17 255.48 127.52 251.72 123.83 249.25 C 116.19 248.16 109.57 243.92 102.30 241.66 C 99.91 240.51 98.78 237.49 95.92 237.19 C 92.52 238.06 90.55 235.62 88.12 234.15 C 85.63 236.46 91.51 238.95 90.75 241.88 C 90.39 243.88 90.06 245.88 89.80 247.89 C 89.26 248.54 88.26 249.08 88.71 250.06 C 88.44 251.32 88.14 252.58 87.83 253.84 C 85.46 252.21 82.96 250.62 79.94 250.84 C 81.14 248.07 84.67 247.50 86.92 245.75 C 88.02 240.93 84.45 237.45 82.10 233.85 C 81.37 230.12 86.35 230.50 88.91 231.03 C 107.94 243.09 129.89 249.48 151.41 255.45 C 167.98 256.94 184.04 262.24 200.68 262.61 C 205.34 260.98 210.25 260.75 215.01 262.12 C 220.09 263.48 225.25 261.71 229.88 259.65 C 229.75 257.05 227.76 253.80 224.15 255.65 C 220.32 254.62 217.34 251.14 212.98 252.11 C 207.28 252.23 202.02 249.89 196.59 248.62 C 190.62 248.59 185.36 245.60 179.59 244.56 C 172.65 243.53 165.90 241.58 159.17 239.67 C 155.24 238.13 151.14 236.76 146.86 237.05 C 133.24 231.88 118.99 228.07 106.35 220.61 C 95.04 214.13 83.51 206.73 76.70 195.30 C 75.22 192.49 72.31 190.60 69.08 190.87 C 69.11 190.21 69.17 188.89 69.20 188.24 C 70.03 186.22 70.70 184.15 71.31 182.06 Z" />
</g>
<g id="#482813ff">
<path fill="#482813" opacity="1.00" d=" M 291.81 183.07 C 297.92 182.38 302.37 188.18 307.08 190.84 C 310.12 191.00 312.76 192.25 312.33 195.71 C 315.74 198.64 316.99 203.32 316.80 207.66 C 309.91 209.22 319.20 215.65 314.79 218.87 C 308.15 218.74 301.35 216.03 296.20 211.80 C 293.58 209.26 288.86 211.88 286.83 208.20 C 286.22 206.16 283.42 205.42 283.29 203.54 C 286.03 203.76 287.35 206.22 288.92 208.11 C 292.88 208.76 297.06 209.78 300.09 212.87 C 301.76 216.23 304.70 214.76 306.93 213.80 C 306.59 210.63 305.53 207.55 305.57 204.32 C 304.46 203.74 303.32 203.26 302.19 202.75 C 305.61 201.11 304.15 197.12 304.92 194.09 C 302.19 189.61 298.09 185.48 292.90 183.97 C 292.63 183.74 292.08 183.29 291.81 183.07 Z" />
</g>
<g id="#402310ff">
<path fill="#402310" opacity="1.00" d=" M 292.90 183.97 C 298.09 185.48 302.19 189.61 304.92 194.09 C 304.15 197.12 305.61 201.11 302.19 202.75 C 303.32 203.26 304.46 203.74 305.57 204.32 C 305.53 207.55 306.59 210.63 306.93 213.80 C 304.70 214.76 301.76 216.23 300.09 212.87 C 297.06 209.78 292.88 208.76 288.92 208.11 C 290.44 208.07 293.49 207.98 295.02 207.94 C 295.42 205.15 294.41 201.64 291.07 201.63 C 291.43 199.78 291.93 197.69 293.61 196.60 C 296.29 194.56 295.34 190.47 296.01 187.44 C 293.61 188.32 292.73 185.96 292.90 183.97 Z" />
</g>
<g id="#0f080230">
<path fill="#0f0802" opacity="0.19" d=" M 453.02 185.01 L 453.98 185.00 C 453.14 187.36 455.48 193.01 453.01 194.01 C 453.01 192.25 452.99 188.75 452.98 186.99 C 452.99 186.49 453.01 185.50 453.02 185.01 Z" />
</g>
<g id="#2e201578">
<path fill="#2e2015" opacity="0.47" d=" M 68.04 185.98 L 69.05 186.07 C 69.09 186.61 69.16 187.69 69.20 188.24 C 69.17 188.89 69.11 190.21 69.08 190.87 C 69.06 191.61 69.04 193.09 69.02 193.83 C 68.99 195.58 68.99 197.32 69.00 199.07 C 68.99 200.65 69.03 202.23 69.10 203.82 C 69.12 205.56 69.16 209.05 69.17 210.79 C 69.11 213.52 69.06 216.26 69.00 219.00 L 68.02 219.00 C 68.01 218.25 67.99 216.75 67.98 216.00 C 68.08 205.99 67.86 195.98 68.04 185.98 Z" />
</g>
<g id="#371d09bb">
<path fill="#371d09" opacity="0.73" d=" M 451.98 187.00 L 452.98 186.99 C 452.99 188.75 453.01 192.25 453.01 194.01 C 453.00 194.51 452.97 195.50 452.96 196.00 L 452.00 196.00 C 451.98 193.01 451.92 189.99 451.98 187.00 Z" />
</g>
<g id="#5b3a25ff">
<path fill="#5b3a25" opacity="1.00" d=" M 69.08 190.87 C 72.31 190.60 75.22 192.49 76.70 195.30 C 83.51 206.73 95.04 214.13 106.35 220.61 C 118.99 228.07 133.24 231.88 146.86 237.05 C 158.39 242.44 171.25 243.84 183.32 247.63 C 193.64 250.70 204.68 251.81 214.21 257.12 C 212.51 260.20 208.54 258.79 205.60 259.46 C 200.09 260.78 194.57 258.58 189.08 259.69 C 174.37 256.86 158.77 257.06 144.79 251.14 C 160.01 253.87 175.24 256.47 190.67 257.46 C 193.25 258.52 195.62 257.17 197.97 256.23 C 199.62 256.97 201.15 258.06 203.03 258.13 C 201.97 256.01 201.23 252.86 197.38 254.48 C 189.79 250.06 180.69 249.72 172.60 246.49 C 154.39 242.36 136.90 235.85 119.36 229.57 C 110.97 224.94 102.00 221.36 94.07 215.91 C 88.56 212.59 84.47 207.53 79.79 203.21 C 76.18 200.19 74.60 193.81 69.02 193.83 C 69.04 193.09 69.06 191.61 69.08 190.87 Z" />
</g>
<g id="#422613ff">
<path fill="#422613" opacity="1.00" d=" M 242.96 191.01 C 252.39 191.49 261.56 194.34 270.76 196.24 C 271.09 196.70 271.75 197.61 272.08 198.06 C 262.81 197.40 254.24 192.79 244.91 192.00 C 245.08 194.68 248.21 195.46 249.53 197.52 C 245.88 198.81 242.78 194.25 242.96 191.01 Z" />
</g>
<g id="#2b170aff">
<path fill="#2b170a" opacity="1.00" d=" M 244.91 192.00 C 254.24 192.79 262.81 197.40 272.08 198.06 C 273.11 198.15 274.06 198.50 274.93 199.14 C 276.59 200.02 278.37 200.76 279.75 202.07 C 276.78 208.19 279.41 215.17 282.13 220.93 C 280.40 220.65 278.71 220.24 277.00 219.92 C 275.38 219.48 274.51 217.80 273.20 216.84 C 269.89 214.12 267.00 210.80 263.24 208.68 C 258.04 205.82 253.98 201.36 249.53 197.52 C 248.21 195.46 245.08 194.68 244.91 192.00 Z" />
</g>
<g id="#61422eff">
<path fill="#61422e" opacity="1.00" d=" M 69.02 193.83 C 74.60 193.81 76.18 200.19 79.79 203.21 C 84.47 207.53 88.56 212.59 94.07 215.91 C 102.00 221.36 110.97 224.94 119.36 229.57 C 136.90 235.85 154.39 242.36 172.60 246.49 C 180.69 249.72 189.79 250.06 197.38 254.48 C 201.23 252.86 201.97 256.01 203.03 258.13 C 201.15 258.06 199.62 256.97 197.97 256.23 C 195.62 257.17 193.25 258.52 190.67 257.46 C 175.24 256.47 160.01 253.87 144.79 251.14 C 140.81 249.27 136.45 248.66 132.23 247.59 C 118.45 243.20 104.88 237.82 92.34 230.62 C 85.41 225.11 76.23 222.42 71.02 214.92 C 70.38 213.55 69.79 212.17 69.17 210.79 C 69.16 209.05 69.12 205.56 69.10 203.82 C 69.33 204.18 69.79 204.90 70.02 205.26 C 70.06 205.88 70.14 207.12 70.19 207.74 C 71.93 215.09 79.16 219.04 84.81 223.17 C 101.91 235.30 121.82 242.42 141.82 248.11 C 151.70 251.35 162.13 252.31 172.41 253.43 C 176.04 254.59 179.60 253.37 183.14 252.72 C 179.71 248.82 173.85 249.33 169.34 247.59 C 162.78 245.05 155.88 243.63 149.10 241.82 C 144.97 240.63 141.24 237.61 136.75 238.18 C 115.90 229.51 93.47 221.34 78.25 203.75 C 75.50 201.94 72.64 194.38 69.00 199.07 C 68.99 197.32 68.99 195.58 69.02 193.83 Z" />
</g>
<g id="#2f1b0c90">
<path fill="#2f1b0c" opacity="0.56" d=" M 452.00 196.00 L 452.96 196.00 C 453.04 197.66 453.04 199.33 453.02 201.00 C 453.00 201.76 452.97 203.27 452.95 204.02 L 451.97 203.88 C 451.98 201.25 451.99 198.62 452.00 196.00 Z" />
</g>
<g id="#6b4e3aff">
<path fill="#6b4e3a" opacity="1.00" d=" M 69.00 199.07 C 72.64 194.38 75.50 201.94 78.25 203.75 C 93.47 221.34 115.90 229.51 136.75 238.18 C 140.55 240.43 144.90 241.44 149.07 242.77 C 155.66 244.24 161.60 247.59 168.09 249.40 C 167.08 249.97 166.09 250.68 164.93 250.91 C 157.12 250.82 149.60 248.35 141.82 248.11 C 121.82 242.42 101.91 235.30 84.81 223.17 C 79.16 219.04 71.93 215.09 70.19 207.74 C 78.09 215.87 86.80 223.66 97.13 228.83 C 111.61 236.06 126.84 243.40 143.33 243.72 C 122.85 235.78 102.59 226.39 85.00 212.99 C 80.59 210.24 78.10 204.91 73.10 203.08 C 72.05 203.77 71.07 204.57 70.02 205.26 C 69.79 204.90 69.33 204.18 69.10 203.82 C 69.03 202.23 68.99 200.65 69.00 199.07 Z" />
</g>
<g id="#120b0629">
<path fill="#120b06" opacity="0.16" d=" M 453.02 201.00 L 453.99 201.00 C 453.97 215.66 454.10 230.32 453.95 244.98 L 453.01 245.00 C 452.95 241.32 453.03 237.67 452.99 234.00 C 452.99 224.00 453.06 214.01 452.95 204.02 C 452.97 203.27 453.00 201.76 453.02 201.00 Z" />
</g>
<g id="#755845ff">
<path fill="#755845" opacity="1.00" d=" M 70.02 205.26 C 71.07 204.57 72.05 203.77 73.10 203.08 C 78.10 204.91 80.59 210.24 85.00 212.99 C 102.59 226.39 122.85 235.78 143.33 243.72 C 126.84 243.40 111.61 236.06 97.13 228.83 C 86.80 223.66 78.09 215.87 70.19 207.74 C 70.14 207.12 70.06 205.88 70.02 205.26 Z" />
</g>
<g id="#3b200bbc">
<path fill="#3b200b" opacity="0.74" d=" M 451.97 203.88 L 452.95 204.02 C 453.06 214.01 452.99 224.00 452.99 234.00 L 452.01 234.00 C 451.97 227.92 451.98 221.83 451.87 215.75 C 451.91 214.09 451.90 212.44 451.89 210.78 C 451.95 208.78 451.90 206.77 451.87 204.78 L 451.97 203.88 Z" />
</g>
<g id="#5c4130ff">
<path fill="#5c4130" opacity="1.00" d=" M 445.67 218.74 C 447.29 213.91 448.99 209.02 451.87 204.78 C 451.90 206.77 451.95 208.78 451.89 210.78 C 448.62 214.31 449.23 219.77 446.20 223.21 C 445.99 221.72 445.81 220.23 445.67 218.74 Z" />
</g>
<g id="#664835ff">
<path fill="#664835" opacity="1.00" d=" M 417.12 210.11 C 419.13 205.82 426.99 203.90 428.19 209.65 C 425.34 209.57 421.85 208.23 419.98 211.00 C 416.35 216.79 411.93 222.49 405.92 225.91 C 398.35 226.66 390.44 224.86 383.08 227.06 C 381.78 227.55 380.44 227.94 379.08 228.15 C 379.53 225.65 380.65 223.58 383.31 223.04 C 388.25 222.91 393.18 223.21 398.10 223.74 C 406.61 223.82 413.09 216.98 417.12 210.11 Z" />
</g>
<g id="#2e1a0979">
<path fill="#2e1a09" opacity="0.47" d=" M 480.39 207.73 C 478.65 205.72 490.14 207.23 483.03 212.00 L 482.94 217.02 L 481.90 216.92 C 481.87 213.78 483.01 210.08 480.39 207.73 Z" />
</g>
<g id="#5d3712f8">
<path fill="#5d3712" opacity="0.97" d=" M 476.32 209.36 C 477.73 208.97 479.06 208.35 480.39 207.73 C 483.01 210.08 481.87 213.78 481.90 216.92 L 481.78 217.75 C 480.67 222.85 480.74 228.14 481.70 233.27 C 481.89 241.33 484.54 249.04 485.03 257.00 C 484.97 260.66 485.01 264.35 485.01 268.02 C 484.84 271.31 481.84 273.60 479.80 275.88 C 473.57 277.45 468.97 271.31 468.00 266.02 C 467.97 260.01 468.03 254.00 467.98 248.00 C 467.83 242.65 469.69 237.53 470.32 232.27 C 470.85 227.80 471.75 223.08 470.42 218.68 C 469.96 216.76 469.34 214.89 468.90 212.97 C 467.94 208.24 473.44 210.67 476.32 209.36 Z" />
</g>
<g id="#3f2610ff">
<path fill="#3f2610" opacity="1.00" d=" M 263.24 208.68 C 267.00 210.80 269.89 214.12 273.20 216.84 C 268.54 216.95 263.95 212.77 263.24 208.68 Z" />
</g>
<g id="#462612ff">
<path fill="#462612" opacity="1.00" d=" M 280.95 209.04 L 281.88 208.97 C 279.51 215.62 286.26 218.21 290.82 220.25 C 295.62 221.43 297.54 227.57 302.78 227.27 C 305.41 230.69 308.67 233.58 312.71 235.09 C 312.48 238.48 310.66 242.62 313.59 245.29 C 313.86 247.37 309.25 249.55 308.39 246.65 C 307.34 243.53 303.41 243.78 301.75 241.24 C 298.79 237.33 293.46 236.34 290.66 232.36 C 288.62 230.80 285.98 229.32 285.01 226.87 C 289.33 228.71 292.54 232.55 297.08 234.01 C 297.36 229.48 294.49 225.55 291.90 222.14 C 288.45 220.29 284.35 219.43 281.70 216.33 C 278.63 214.81 280.56 211.43 280.95 209.04 Z" />
</g>
<g id="#2d1b0975">
<path fill="#2d1b09" opacity="0.46" d=" M 468.03 209.00 C 470.81 208.79 473.57 208.91 476.32 209.36 C 473.44 210.67 467.94 208.24 468.90 212.97 C 466.93 213.34 468.40 210.12 468.03 209.00 Z" />
</g>
<g id="#503626fd">
<path fill="#503626" opacity="1.00" d=" M 69.17 210.79 C 69.79 212.17 70.38 213.55 71.02 214.92 C 72.70 220.75 69.22 227.55 73.35 232.64 C 75.28 233.80 78.60 233.83 78.53 236.76 C 77.55 241.35 80.68 245.80 78.96 250.27 C 77.94 249.58 76.99 248.82 76.01 248.09 C 75.95 249.37 75.89 250.66 75.85 251.94 C 75.39 252.23 74.46 252.81 73.99 253.10 C 72.34 252.53 70.61 251.92 68.98 252.91 C 68.99 241.60 69.02 230.30 69.00 219.00 C 69.06 216.26 69.11 213.52 69.17 210.79 Z" />
</g>
<g id="#523622ff">
<path fill="#523622" opacity="1.00" d=" M 446.20 223.21 C 449.23 219.77 448.62 214.31 451.89 210.78 C 451.90 212.44 451.91 214.09 451.87 215.75 C 448.46 219.36 449.41 225.01 447.58 229.41 C 445.64 234.09 445.27 239.00 445.95 244.00 C 446.85 247.59 444.56 253.93 439.92 253.03 C 440.02 251.61 440.49 250.26 441.02 248.95 C 442.58 245.79 443.17 242.41 442.52 238.99 C 443.46 232.24 443.75 225.31 445.67 218.74 C 445.81 220.23 445.99 221.72 446.20 223.21 Z" />
</g>
<g id="#442611ff">
<path fill="#442611" opacity="1.00" d=" M 427.88 211.96 C 431.26 213.50 435.50 213.91 437.71 217.26 C 438.70 220.58 437.97 224.76 440.45 227.55 C 441.66 228.61 440.27 229.63 439.59 230.44 C 441.50 236.39 440.27 242.81 441.02 248.95 C 439.43 249.59 437.94 250.43 436.32 250.98 C 433.99 244.19 433.16 237.14 433.71 229.93 C 434.85 223.18 430.76 217.53 427.88 211.96 Z" />
</g>
<g id="#5a3318ff">
<path fill="#5a3318" opacity="1.00" d=" M 346.07 221.04 C 345.02 218.63 346.99 214.00 349.91 214.03 C 354.02 216.43 357.94 220.30 363.03 219.93 C 364.12 222.24 366.27 223.21 368.72 223.38 C 371.93 228.93 369.15 235.96 370.01 242.01 C 372.09 243.41 369.24 250.23 366.86 247.18 C 362.10 241.08 353.77 241.00 348.30 235.81 C 349.27 233.25 347.73 231.72 345.18 232.71 C 342.74 228.92 346.21 224.99 346.07 221.04 Z" />
</g>
<g id="#583620ff">
<path fill="#583620" opacity="1.00" d=" M 71.02 214.92 C 76.23 222.42 85.41 225.11 92.34 230.62 C 104.88 237.82 118.45 243.20 132.23 247.59 C 136.45 248.66 140.81 249.27 144.79 251.14 C 158.77 257.06 174.37 256.86 189.08 259.69 C 194.57 258.58 200.09 260.78 205.60 259.46 C 208.54 258.79 212.51 260.20 214.21 257.12 C 204.68 251.81 193.64 250.70 183.32 247.63 C 171.25 243.84 158.39 242.44 146.86 237.05 C 151.14 236.76 155.24 238.13 159.17 239.67 C 165.90 241.58 172.65 243.53 179.59 244.56 C 185.36 245.60 190.62 248.59 196.59 248.62 C 202.02 249.89 207.28 252.23 212.98 252.11 C 217.34 251.14 220.32 254.62 224.15 255.65 C 227.76 253.80 229.75 257.05 229.88 259.65 C 225.25 261.71 220.09 263.48 215.01 262.12 C 210.25 260.75 205.34 260.98 200.68 262.61 C 184.04 262.24 167.98 256.94 151.41 255.45 C 129.89 249.48 107.94 243.09 88.91 231.03 C 86.35 230.50 81.37 230.12 82.10 233.85 C 84.45 237.45 88.02 240.93 86.92 245.75 C 84.67 247.50 81.14 248.07 79.94 250.84 C 79.72 251.15 79.27 251.78 79.04 252.09 C 79.02 251.63 78.98 250.72 78.96 250.27 C 80.68 245.80 77.55 241.35 78.53 236.76 C 78.60 233.83 75.28 233.80 73.35 232.64 C 69.22 227.55 72.70 220.75 71.02 214.92 Z" />
</g>
<g id="#0a080613">
<path fill="#0a0806" opacity="0.07" d=" M 67.04 216.02 L 67.98 216.00 C 67.99 216.75 68.01 218.25 68.02 219.00 C 67.98 234.33 68.00 249.66 68.01 265.00 L 67.05 265.00 C 66.97 248.68 66.94 232.35 67.04 216.02 Z" />
</g>
<g id="#341c098c">
<path fill="#341c09" opacity="0.55" d=" M 481.70 233.27 C 480.74 228.14 480.67 222.85 481.78 217.75 C 481.89 222.91 482.39 228.13 481.70 233.27 Z" />
</g>
<g id="#3b2819a4">
<path fill="#3b2819" opacity="0.64" d=" M 68.02 219.00 L 69.00 219.00 C 69.02 230.30 68.99 241.60 68.98 252.91 C 68.98 256.93 68.98 260.96 68.99 265.00 L 68.01 265.00 C 68.00 249.66 67.98 234.33 68.02 219.00 Z" />
</g>
<g id="#2a180578">
<path fill="#2a1805" opacity="0.47" d=" M 470.42 218.68 C 471.75 223.08 470.85 227.80 470.32 232.27 C 470.13 227.76 469.47 223.14 470.42 218.68 Z" />
</g>
<g id="#321b099f">
<path fill="#321b09" opacity="0.62" d=" M 452.01 234.00 L 452.99 234.00 C 453.03 237.67 452.95 241.32 453.01 245.00 C 453.00 246.75 452.98 250.25 452.97 252.00 L 451.99 251.96 C 452.02 245.97 451.96 239.98 452.01 234.00 Z" />
</g>
<g id="#664834ff">
<path fill="#664834" opacity="1.00" d=" M 136.75 238.18 C 141.24 237.61 144.97 240.63 149.10 241.82 C 155.88 243.63 162.78 245.05 169.34 247.59 C 173.85 249.33 179.71 248.82 183.14 252.72 C 179.60 253.37 176.04 254.59 172.41 253.43 C 162.13 252.31 151.70 251.35 141.82 248.11 C 149.60 248.35 157.12 250.82 164.93 250.91 C 166.09 250.68 167.08 249.97 168.09 249.40 C 161.60 247.59 155.66 244.24 149.07 242.77 C 144.90 241.44 140.55 240.43 136.75 238.18 Z" />
</g>
<g id="#472916ff">
<path fill="#472916" opacity="1.00" d=" M 93.26 243.14 C 96.09 242.75 99.15 242.79 101.70 244.19 C 100.48 247.76 104.63 249.22 106.29 251.73 C 107.78 253.99 110.64 251.25 112.71 252.29 C 115.36 252.87 116.14 255.62 117.45 257.63 C 118.81 258.54 121.54 260.36 122.90 261.27 C 122.81 263.61 120.78 265.41 121.97 267.99 C 120.30 265.60 117.69 264.39 115.12 263.22 C 108.82 270.13 115.02 280.30 111.21 288.21 C 110.83 277.75 109.62 267.25 111.64 256.86 C 109.08 256.23 106.89 256.64 105.05 258.10 C 107.69 261.85 109.46 267.07 106.21 270.98 C 109.79 279.01 107.44 288.39 107.99 296.99 C 107.50 297.24 106.53 297.73 106.05 297.98 C 105.28 286.98 104.02 276.02 103.89 265.00 C 103.68 262.51 102.84 260.09 102.27 257.69 C 101.58 254.74 100.87 251.54 98.16 249.76 C 94.89 247.10 96.08 253.99 93.34 254.41 C 91.58 256.42 87.03 253.52 90.14 251.94 C 92.14 251.44 89.12 250.62 88.71 250.06 C 88.26 249.08 89.26 248.54 89.80 247.89 C 91.23 246.52 92.09 244.71 93.26 243.14 Z" />
</g>
<g id="#644a39ff">
<path fill="#644a39" opacity="1.00" d=" M 76.01 248.09 C 76.99 248.82 77.94 249.58 78.96 250.27 C 78.98 250.72 79.02 251.63 79.04 252.09 C 78.40 252.91 77.71 253.70 76.97 254.44 C 76.69 253.82 76.13 252.57 75.85 251.94 C 75.89 250.66 75.95 249.37 76.01 248.09 Z" />
</g>
<g id="#321c0984">
<path fill="#321c09" opacity="0.52" d=" M 467.04 248.02 L 467.98 248.00 C 468.03 254.00 467.97 260.01 468.00 266.02 L 467.02 265.99 C 467.00 259.99 466.83 254.01 467.04 248.02 Z" />
</g>
<g id="#4e2c16fe">
<path fill="#4e2c16" opacity="1.00" d=" M 93.34 254.41 C 96.08 253.99 94.89 247.10 98.16 249.76 C 99.35 261.17 98.31 272.71 99.87 284.07 C 100.04 293.27 100.14 302.48 99.83 311.69 C 98.06 319.08 99.85 326.59 99.89 334.04 C 89.92 329.64 81.86 321.45 74.20 313.78 C 74.08 313.34 73.85 312.47 73.74 312.03 C 73.82 309.97 75.21 308.72 76.75 307.61 C 77.33 289.90 76.88 272.16 76.97 254.44 C 77.71 253.70 78.40 252.91 79.04 252.09 C 79.27 251.78 79.72 251.15 79.94 250.84 C 82.96 250.62 85.46 252.21 87.83 253.84 C 88.14 252.58 88.44 251.32 88.71 250.06 C 89.12 250.62 92.14 251.44 90.14 251.94 C 87.03 253.52 91.58 256.42 93.34 254.41 Z" />
</g>
<g id="#61432fff">
<path fill="#61432f" opacity="1.00" d=" M 98.16 249.76 C 100.87 251.54 101.58 254.74 102.27 257.69 L 102.09 258.70 C 101.60 258.86 100.62 259.19 100.14 259.35 C 99.88 267.18 99.88 275.03 100.11 282.86 L 99.87 284.07 C 98.31 272.71 99.35 261.17 98.16 249.76 Z" />
</g>
<g id="#573e31ff">
<path fill="#573e31" opacity="1.00" d=" M 68.98 252.91 C 70.61 251.92 72.34 252.53 73.99 253.10 C 73.98 265.36 74.05 277.62 73.96 289.88 C 72.38 291.21 70.19 295.87 69.06 291.85 C 68.93 282.90 69.04 273.95 68.99 265.00 C 68.98 260.96 68.98 256.93 68.98 252.91 Z" />
</g>
<g id="#3b2310fd">
<path fill="#3b2310" opacity="1.00" d=" M 73.99 253.10 C 74.46 252.81 75.39 252.23 75.85 251.94 C 76.13 252.57 76.69 253.82 76.97 254.44 C 76.88 272.16 77.33 289.90 76.75 307.61 C 75.21 308.72 73.82 309.97 73.74 312.03 C 72.73 311.43 71.52 310.68 72.15 309.32 C 72.55 308.89 73.34 308.04 73.74 307.62 C 74.17 301.71 74.00 295.79 73.96 289.88 C 74.05 277.62 73.98 265.36 73.99 253.10 Z" />
</g>
<g id="#5a3319ff">
<path fill="#5a3319" opacity="1.00" d=" M 349.27 255.08 C 352.63 254.11 354.07 259.47 358.03 257.02 C 362.00 257.83 365.10 260.80 368.81 262.35 C 369.66 268.88 367.82 275.72 369.81 282.10 C 370.24 283.45 370.11 285.07 368.81 285.89 C 366.62 285.33 364.43 284.76 362.22 285.57 C 360.22 283.44 356.40 282.57 356.79 279.04 C 351.40 281.84 348.79 274.07 344.00 273.00 C 340.50 273.19 342.44 266.43 344.99 268.86 C 342.73 263.97 346.53 260.85 346.15 265.96 C 349.68 266.94 347.04 262.85 347.07 261.06 C 347.89 259.10 348.88 257.19 349.27 255.08 Z" />
</g>
<g id="#3e210ffe">
<path fill="#3e210f" opacity="1.00" d=" M 105.05 258.10 C 106.89 256.64 109.08 256.23 111.64 256.86 C 109.62 267.25 110.83 277.75 111.21 288.21 C 110.62 301.82 112.95 315.36 112.03 329.01 C 110.53 331.99 114.45 338.46 109.86 339.72 C 109.45 339.64 108.62 339.47 108.20 339.38 C 110.34 325.31 107.77 311.12 107.99 296.99 C 107.44 288.39 109.79 279.01 106.21 270.98 C 109.46 267.07 107.69 261.85 105.05 258.10 Z" />
</g>
<g id="#2f1a0482">
<path fill="#2f1a04" opacity="0.51" d=" M 485.03 257.00 L 486.00 257.00 C 486.00 259.75 485.99 265.24 485.98 267.98 L 485.01 268.02 C 485.01 264.35 484.97 260.66 485.03 257.00 Z" />
</g>
<g id="#4e3425ff">
<path fill="#4e3425" opacity="1.00" d=" M 102.27 257.69 C 102.84 260.09 103.68 262.51 103.89 265.00 C 104.02 276.02 105.28 286.98 106.05 297.98 C 106.53 297.73 107.50 297.24 107.99 296.99 C 107.77 311.12 110.34 325.31 108.20 339.38 C 106.41 335.43 108.26 330.82 106.26 326.87 C 106.88 322.45 106.38 317.81 104.08 313.88 C 103.88 299.53 103.87 284.96 102.27 270.74 C 102.09 266.72 102.03 262.71 102.09 258.70 L 102.27 257.69 Z" />
</g>
<g id="#7a6050fe">
<path fill="#7a6050" opacity="1.00" d=" M 100.14 259.35 C 100.62 259.19 101.60 258.86 102.09 258.70 C 102.03 262.71 102.09 266.72 102.27 270.74 C 101.87 285.51 102.30 300.38 103.88 315.07 C 103.94 322.14 104.46 329.27 103.30 336.28 C 102.73 335.96 101.57 335.31 101.00 334.98 C 100.99 327.32 101.07 319.66 100.90 312.00 C 100.11 302.41 102.73 292.15 100.11 282.86 C 99.88 275.03 99.88 267.18 100.14 259.35 Z" />
</g>
<g id="#482812ff">
<path fill="#482812" opacity="1.00" d=" M 313.21 259.13 C 316.71 258.35 318.41 262.77 321.69 263.37 C 326.57 268.05 334.88 269.16 338.11 274.97 C 339.78 276.38 337.28 280.93 335.05 281.10 C 330.91 282.63 331.42 290.88 336.97 289.14 C 335.62 291.68 337.32 294.19 336.85 296.79 C 335.89 299.26 333.26 296.07 332.14 298.20 C 330.92 301.97 338.00 300.02 337.05 303.90 C 335.53 303.94 332.47 304.03 330.95 304.08 C 331.34 307.01 332.91 310.08 330.77 312.77 C 328.51 313.28 326.21 313.69 323.93 313.10 C 324.00 314.64 325.18 315.67 325.99 316.87 C 322.14 317.70 316.62 318.68 314.32 314.71 C 310.89 309.38 314.49 302.71 312.89 297.08 C 310.95 297.96 308.79 298.76 307.50 300.55 C 300.84 301.71 294.91 305.13 288.24 306.26 C 286.53 308.62 286.00 311.75 284.01 314.05 C 285.25 319.89 285.20 326.26 282.83 331.89 C 281.06 331.97 277.93 332.83 279.12 329.94 C 279.94 330.49 280.84 330.83 281.82 330.96 C 284.48 324.18 281.70 316.56 283.55 309.62 C 284.12 306.34 287.57 304.76 290.19 303.30 C 296.17 301.84 302.09 300.13 307.77 297.76 C 309.55 293.78 302.70 296.24 300.29 295.64 C 295.93 298.11 291.20 300.14 286.08 300.17 C 280.66 301.68 278.12 307.82 276.94 312.91 L 276.01 313.04 C 276.01 312.29 276.01 310.79 276.01 310.04 C 276.07 309.62 276.20 308.80 276.26 308.38 C 278.36 303.68 272.70 303.55 269.20 303.84 C 267.42 300.99 265.44 297.67 261.71 297.39 C 250.93 296.98 241.39 303.07 231.06 305.09 C 232.08 303.37 233.17 301.69 234.02 299.88 C 229.30 300.13 226.37 304.54 223.37 307.66 C 222.64 306.70 221.93 305.73 221.13 304.83 C 221.28 306.90 223.47 311.28 219.73 309.29 C 219.42 308.22 219.12 307.16 218.84 306.10 C 218.57 302.59 215.28 304.92 213.31 304.62 C 209.65 301.20 204.25 299.86 201.74 295.31 C 198.30 294.06 193.71 293.79 192.01 290.00 C 190.34 285.98 186.42 283.89 182.22 284.20 C 179.66 286.44 177.29 290.67 173.27 289.72 C 171.82 289.44 170.07 290.35 169.11 288.82 C 169.84 284.88 171.49 281.02 170.09 276.92 C 172.80 276.77 172.45 281.51 175.71 279.85 C 176.59 275.46 182.82 272.01 186.39 275.56 C 194.71 273.03 188.62 279.05 191.28 281.71 C 192.25 286.01 198.21 283.25 200.75 286.26 C 203.41 289.87 207.99 290.75 210.81 294.14 C 215.29 297.15 220.62 298.82 225.01 302.02 C 229.38 299.40 232.85 292.79 238.78 294.52 C 240.97 292.92 243.28 293.16 245.73 293.74 C 247.95 288.93 254.61 294.23 256.35 289.21 C 258.08 288.35 257.78 290.72 259.06 291.03 C 261.70 292.39 264.85 291.22 267.75 291.47 C 271.40 293.35 273.20 297.22 276.24 299.84 C 279.06 301.04 281.92 299.61 283.49 297.44 C 290.56 295.68 297.51 293.68 304.66 292.61 C 306.89 290.10 310.43 290.55 312.92 288.81 C 313.70 285.40 312.82 282.21 312.01 279.00 C 313.73 274.86 311.96 270.50 312.41 266.23 C 312.53 263.81 310.88 260.70 313.21 259.13 Z" />
</g>
<g id="#452814ff">
<path fill="#452814" opacity="1.00" d=" M 137.33 261.28 C 141.29 262.54 144.99 261.12 148.87 261.05 C 149.93 262.53 152.07 265.49 153.14 266.98 C 155.46 267.60 155.06 264.12 157.04 263.99 C 162.26 261.76 166.55 267.82 167.88 272.10 C 169.61 276.20 161.16 269.91 163.07 275.10 C 163.27 276.07 163.60 277.00 164.08 277.89 C 162.96 280.51 164.14 283.11 164.57 285.73 C 162.26 287.12 164.97 292.31 161.99 292.01 C 162.10 285.06 161.48 278.05 162.54 271.15 C 161.89 269.32 159.66 270.16 158.19 270.02 C 159.37 273.94 158.61 275.36 155.93 274.30 C 156.81 277.01 158.60 279.53 157.33 282.62 C 157.70 297.03 158.33 311.70 155.93 326.01 C 155.69 325.73 155.19 325.18 154.95 324.91 C 154.92 322.23 154.84 319.57 154.71 316.92 L 154.69 316.19 C 154.53 306.78 156.20 297.01 154.26 287.77 C 154.13 287.38 153.88 286.61 153.75 286.23 C 154.14 281.62 154.71 276.65 151.98 272.61 C 151.97 271.96 151.96 270.66 151.95 270.01 C 152.67 267.29 149.27 266.12 147.35 267.39 C 145.27 268.91 142.54 270.41 139.97 269.23 C 136.94 269.19 137.02 272.61 135.05 274.08 C 133.83 277.23 131.07 281.98 127.33 278.72 C 126.62 276.16 125.47 273.72 125.02 271.11 C 127.91 266.62 133.68 265.11 137.33 261.28 Z" />
</g>
<g id="#19130e38">
<path fill="#19130e" opacity="0.22" d=" M 67.05 265.00 L 68.01 265.00 C 67.98 276.66 68.03 288.33 67.99 300.00 L 67.02 299.99 C 67.03 288.33 66.87 276.66 67.05 265.00 Z" />
</g>
<g id="#503b2bcb">
<path fill="#503b2b" opacity="0.80" d=" M 68.01 265.00 L 68.99 265.00 C 69.04 273.95 68.93 282.90 69.06 291.85 C 69.06 293.49 69.06 295.14 69.10 296.79 C 69.06 298.20 69.02 299.60 68.98 301.02 C 68.73 300.76 68.24 300.26 67.99 300.00 C 68.03 288.33 67.98 276.66 68.01 265.00 Z" />
</g>
<g id="#573521ff">
<path fill="#573521" opacity="1.00" d=" M 116.95 266.97 C 120.71 266.79 121.75 271.74 124.27 273.71 C 125.42 274.85 124.91 276.61 124.99 278.05 C 120.12 277.27 117.91 271.37 116.95 266.97 Z" />
</g>
<g id="#5d432eff">
<path fill="#5d432e" opacity="1.00" d=" M 148.94 270.02 C 149.70 270.02 151.20 270.01 151.95 270.01 C 151.96 270.66 151.97 271.96 151.98 272.61 C 151.41 275.69 150.97 278.84 150.96 281.99 L 150.04 282.00 C 150.63 277.89 149.66 273.98 148.94 270.02 Z" />
</g>
<g id="#3e200dff">
<path fill="#3e200d" opacity="1.00" d=" M 158.19 270.02 C 159.66 270.16 161.89 269.32 162.54 271.15 C 161.48 278.05 162.10 285.06 161.99 292.01 C 162.46 301.89 162.34 311.77 159.39 321.30 C 159.05 323.31 158.89 326.70 155.93 326.01 C 158.33 311.70 157.70 297.03 157.33 282.62 C 158.60 279.53 156.81 277.01 155.93 274.30 C 158.61 275.36 159.37 273.94 158.19 270.02 Z" />
</g>
<g id="#63483aff">
<path fill="#63483a" opacity="1.00" d=" M 102.27 270.74 C 103.87 284.96 103.88 299.53 104.08 313.88 L 103.88 315.07 C 102.30 300.38 101.87 285.51 102.27 270.74 Z" />
</g>
<g id="#725744ff">
<path fill="#725744" opacity="1.00" d=" M 150.96 281.99 C 150.97 278.84 151.41 275.69 151.98 272.61 C 152.57 277.10 152.18 281.89 153.75 286.23 C 153.88 286.61 154.13 287.38 154.26 287.77 C 154.39 297.19 152.97 306.87 154.69 316.19 L 154.71 316.92 C 154.33 319.53 154.53 322.62 152.15 324.28 C 149.98 324.40 151.41 321.49 151.26 320.25 C 151.85 315.80 152.79 311.08 151.37 306.70 C 150.61 298.51 151.12 290.22 150.96 281.99 Z" />
</g>
<g id="#5b422fff">
<path fill="#5b422f" opacity="1.00" d=" M 151.98 272.61 C 154.71 276.65 154.14 281.62 153.75 286.23 C 152.18 281.89 152.57 277.10 151.98 272.61 Z" />
</g>
<g id="#583b26ff">
<path fill="#583b26" opacity="1.00" d=" M 163.07 275.10 C 163.79 274.27 164.70 273.93 165.79 274.08 C 166.98 278.01 169.19 281.82 169.02 286.03 C 165.32 285.86 165.82 280.41 164.08 277.89 C 163.60 277.00 163.27 276.07 163.07 275.10 Z" />
</g>
<g id="#382210a2">
<path fill="#382210" opacity="0.64" d=" M 409.75 283.77 C 410.07 283.33 410.69 282.43 411.01 281.98 C 411.03 283.99 411.01 285.99 411.00 288.00 C 410.94 291.31 410.97 294.67 411.02 298.00 C 411.45 299.73 411.11 300.73 410.01 301.02 C 410.03 295.26 409.97 289.51 409.75 283.77 Z" />
</g>
<g id="#684e3fff">
<path fill="#684e3f" opacity="1.00" d=" M 100.11 282.86 C 102.73 292.15 100.11 302.41 100.90 312.00 L 99.83 311.69 C 100.14 302.48 100.04 293.27 99.87 284.07 L 100.11 282.86 Z" />
</g>
<g id="#593723fd">
<path fill="#593723" opacity="1.00" d=" M 386.70 291.92 C 394.19 288.79 401.80 285.36 409.75 283.77 C 409.97 289.51 410.03 295.26 410.01 301.02 C 409.20 304.61 407.88 308.54 405.14 311.08 C 402.13 314.76 397.56 312.63 393.68 314.46 C 390.96 314.13 388.35 314.44 385.94 315.88 C 387.27 308.58 385.52 301.25 386.43 293.92 C 386.50 293.42 386.63 292.42 386.70 291.92 Z" />
</g>
<g id="#533828ff">
<path fill="#533828" opacity="1.00" d=" M 154.26 287.77 C 156.20 297.01 154.53 306.78 154.69 316.19 C 152.97 306.87 154.39 297.19 154.26 287.77 Z" />
</g>
<g id="#100a0529">
<path fill="#100a05" opacity="0.16" d=" M 411.00 288.00 L 411.99 288.00 C 411.75 290.50 411.26 295.50 411.02 298.00 C 410.97 294.67 410.94 291.31 411.00 288.00 Z" />
</g>
<g id="#5f493bfd">
<path fill="#5f493b" opacity="1.00" d=" M 69.06 291.85 C 70.19 295.87 72.38 291.21 73.96 289.88 C 74.00 295.79 74.17 301.71 73.74 307.62 C 73.34 308.04 72.55 308.89 72.15 309.32 L 71.09 309.05 C 71.11 308.57 71.16 307.60 71.18 307.12 C 71.47 303.47 72.97 298.93 69.10 296.79 C 69.06 295.14 69.06 293.49 69.06 291.85 Z" />
</g>
<g id="#5a331afb">
<path fill="#5a331a" opacity="1.00" d=" M 367.30 295.19 C 369.38 293.82 371.90 293.34 374.12 292.22 C 378.19 292.83 382.47 293.66 386.06 295.75 C 386.15 295.30 386.34 294.38 386.43 293.92 C 385.52 301.25 387.27 308.58 385.94 315.88 C 388.35 314.44 390.96 314.13 393.68 314.46 C 397.56 312.63 402.13 314.76 405.14 311.08 C 401.50 319.06 393.36 324.90 386.03 329.00 C 382.98 328.98 380.01 328.99 377.00 329.02 C 368.92 328.88 361.09 326.48 353.05 325.92 L 353.07 325.07 C 355.65 325.20 358.43 323.63 360.80 325.17 C 362.81 326.32 364.95 324.35 366.94 323.81 C 367.59 320.82 365.46 318.40 364.49 315.78 C 365.68 308.95 368.02 302.24 367.30 295.19 Z" />
</g>
<g id="#3e240fff">
<path fill="#3e240f" opacity="1.00" d=" M 300.29 295.64 C 302.70 296.24 309.55 293.78 307.77 297.76 C 302.09 300.13 296.17 301.84 290.19 303.30 C 287.57 304.76 284.12 306.34 283.55 309.62 C 281.70 316.56 284.48 324.18 281.82 330.96 C 280.84 330.83 279.94 330.49 279.12 329.94 C 278.43 329.24 277.76 328.53 277.10 327.82 C 276.99 322.84 277.00 317.88 276.94 312.91 C 278.12 307.82 280.66 301.68 286.08 300.17 C 291.20 300.14 295.93 298.11 300.29 295.64 Z" />
</g>
<g id="#6a5a50ec">
<path fill="#6a5a50" opacity="0.93" d=" M 69.10 296.79 C 72.97 298.93 71.47 303.47 71.18 307.12 C 68.97 306.29 68.93 303.08 68.98 301.02 C 69.02 299.60 69.06 298.20 69.10 296.79 Z" />
</g>
<g id="#402410ff">
<path fill="#402410" opacity="1.00" d=" M 223.37 307.66 C 226.37 304.54 229.30 300.13 234.02 299.88 C 233.17 301.69 232.08 303.37 231.06 305.09 C 227.44 309.38 228.90 315.49 225.83 319.94 C 222.24 320.06 221.44 315.40 220.25 312.77 C 220.08 311.60 219.91 310.44 219.73 309.29 C 223.47 311.28 221.28 306.90 221.13 304.83 C 221.93 305.73 222.64 306.70 223.37 307.66 Z" />
</g>
<g id="#654935ff">
<path fill="#654935" opacity="1.00" d=" M 215.95 306.00 C 216.67 306.02 218.12 306.07 218.84 306.10 C 219.12 307.16 219.42 308.22 219.73 309.29 C 219.91 310.44 220.08 311.60 220.25 312.77 C 219.65 314.51 221.28 318.92 218.17 317.92 C 217.38 313.95 216.60 309.98 215.95 306.00 Z" />
</g>
<g id="#614433ff">
<path fill="#614433" opacity="1.00" d=" M 273.06 305.90 C 274.18 306.65 275.21 307.52 276.26 308.38 C 276.20 308.80 276.07 309.62 276.01 310.04 C 275.50 309.77 274.49 309.25 273.98 308.99 C 273.93 313.65 274.02 318.34 273.97 323.01 L 273.01 322.99 C 272.97 317.29 272.87 311.59 273.06 305.90 Z" />
</g>
<g id="#644734ff">
<path fill="#644734" opacity="1.00" d=" M 151.37 306.70 C 152.79 311.08 151.85 315.80 151.26 320.25 C 151.13 315.74 150.56 311.16 151.37 306.70 Z" />
</g>
<g id="#735749ff">
<path fill="#735749" opacity="1.00" d=" M 273.98 308.99 C 274.49 309.25 275.50 309.77 276.01 310.04 C 276.01 310.79 276.01 312.29 276.01 313.04 C 275.93 318.06 276.13 323.11 275.92 328.13 C 275.29 327.38 274.68 326.62 274.09 325.84 C 274.06 325.13 274.00 323.72 273.97 323.01 C 274.02 318.34 273.93 313.65 273.98 308.99 Z" />
</g>
<g id="#543824fd">
<path fill="#543824" opacity="1.00" d=" M 99.89 334.04 C 99.85 326.59 98.06 319.08 99.83 311.69 L 100.90 312.00 C 101.07 319.66 100.99 327.32 101.00 334.98 C 100.72 334.75 100.17 334.28 99.89 334.04 Z" />
</g>
<g id="#5f4432ff">
<path fill="#5f4432" opacity="1.00" d=" M 276.01 313.04 L 276.94 312.91 C 277.00 317.88 276.99 322.84 277.10 327.82 C 276.72 329.07 278.00 333.15 275.65 331.43 C 272.91 331.05 274.33 327.72 274.09 325.84 C 274.68 326.62 275.29 327.38 275.92 328.13 C 276.13 323.11 275.93 318.06 276.01 313.04 Z" />
</g>
<g id="#543e2ff9">
<path fill="#543e2f" opacity="0.98" d=" M 104.08 313.88 C 106.38 317.81 106.88 322.45 106.26 326.87 C 108.26 330.82 106.41 335.43 108.20 339.38 C 106.66 338.55 103.51 338.23 103.30 336.28 C 104.46 329.27 103.94 322.14 103.88 315.07 L 104.08 313.88 Z" />
</g>
<g id="#5d4130ff">
<path fill="#5d4130" opacity="1.00" d=" M 152.15 324.28 C 154.53 322.62 154.33 319.53 154.71 316.92 C 154.84 319.57 154.92 322.23 154.95 324.91 C 154.07 326.27 152.21 325.97 152.15 324.28 Z" />
</g>
<g id="#392312ac">
<path fill="#392312" opacity="0.67" d=" M 312.04 320.04 L 313.01 319.99 C 313.00 324.98 312.95 330.00 313.01 335.00 C 313.01 335.75 313.01 337.25 313.01 338.00 C 312.96 342.32 312.97 346.67 313.01 351.00 C 312.75 351.50 312.24 352.48 311.98 352.97 C 312.08 341.99 311.86 331.02 312.04 320.04 Z" />
</g>
<g id="#110c0827">
<path fill="#110c08" opacity="0.15" d=" M 313.01 319.99 L 313.99 319.97 C 314.01 324.96 314.14 329.98 313.95 334.98 L 313.01 335.00 C 312.95 330.00 313.00 324.98 313.01 319.99 Z" />
</g>
<g id="#271c1466">
<path fill="#271c14" opacity="0.40" d=" M 377.00 329.02 C 380.01 328.99 382.98 328.98 386.03 329.00 C 385.81 332.23 379.48 329.25 377.03 329.96 L 377.00 329.02 Z" />
</g>
<g id="#100b0723">
<path fill="#100b07" opacity="0.14" d=" M 313.01 338.00 L 313.98 338.00 C 313.98 342.31 314.16 346.65 313.96 350.98 L 313.01 351.00 C 312.97 346.67 312.96 342.32 313.01 338.00 Z" />
</g>
<g id="#2c1b0e8f">
<path fill="#2c1b0e" opacity="0.56" d=" M 198.99 360.00 C 203.74 359.94 208.51 359.98 213.22 360.78 C 211.80 360.85 210.39 360.92 208.99 361.00 C 206.50 359.90 200.23 362.57 198.99 360.00 Z" />
</g>
<g id="#3f2413cc">
<path fill="#3f2413" opacity="0.80" d=" M 261.74 360.72 C 266.65 359.12 271.93 360.28 276.99 359.99 L 277.01 360.96 L 276.01 360.99 C 272.99 360.97 270.01 361.01 267.01 361.01 C 265.25 360.94 263.49 360.83 261.74 360.72 Z" />
</g>
<g id="#26170a78">
<path fill="#26170a" opacity="0.47" d=" M 276.99 359.99 C 280.00 359.98 282.97 359.97 286.00 360.03 C 285.90 363.22 279.43 360.25 277.01 360.96 L 276.99 359.99 Z" />
</g>
<g id="#150d0748">
<path fill="#150d07" opacity="0.28" d=" M 208.99 361.00 C 210.39 360.92 211.80 360.85 213.22 360.78 C 216.14 360.97 219.05 360.92 221.99 361.01 L 222.01 361.96 C 217.67 362.03 213.34 362.14 209.02 361.97 L 208.99 361.00 Z" />
</g>
<g id="#27150988">
<path fill="#271509" opacity="0.53" d=" M 221.99 361.01 C 234.00 360.96 246.01 361.01 258.03 361.02 L 257.99 361.97 C 245.99 361.99 234.00 362.10 222.01 361.96 L 221.99 361.01 Z" />
</g>
<g id="#1c0f0762">
<path fill="#1c0f07" opacity="0.38" d=" M 258.03 361.02 C 259.26 360.94 260.50 360.84 261.74 360.72 C 263.49 360.83 265.25 360.94 267.01 361.01 L 267.00 361.97 C 263.98 362.04 260.99 362.10 257.99 361.97 L 258.03 361.02 Z" />
</g>
<g id="#110a0535">
<path fill="#110a05" opacity="0.21" d=" M 267.01 361.01 C 270.01 361.01 272.99 360.97 276.01 360.99 C 275.90 364.24 269.44 361.24 267.00 361.97 L 267.01 361.01 Z" />
</g>
<g id="#23130379">
<path fill="#231303" opacity="0.47" d=" M 358.01 372.01 C 362.31 371.98 366.65 371.83 370.97 372.05 L 371.02 373.00 C 366.66 372.97 362.33 372.97 357.98 372.99 L 358.01 372.01 Z" />
</g>
<g id="#42270ef0">
<path fill="#42270e" opacity="0.94" d=" M 346.07 375.10 C 349.94 373.95 354.04 373.81 357.98 372.99 C 362.33 372.97 366.66 372.97 371.02 373.00 C 374.55 372.70 376.29 377.23 372.80 378.91 C 372.40 378.87 371.60 378.79 371.21 378.75 C 367.17 378.51 362.60 376.80 358.75 378.74 C 358.23 378.97 357.20 379.44 356.69 379.68 C 355.51 380.21 354.32 380.73 353.15 381.27 C 352.97 384.85 353.84 388.41 354.13 391.99 C 359.82 391.75 365.34 389.93 370.96 389.04 C 373.81 389.50 375.36 393.79 372.28 395.26 C 366.93 397.08 360.91 397.49 355.23 398.21 C 351.76 401.09 355.12 406.34 355.30 410.04 C 355.48 410.92 355.66 411.79 355.85 412.68 C 352.46 416.66 351.06 422.15 353.04 427.15 C 353.04 428.82 353.04 432.16 353.04 433.83 C 352.52 437.80 344.35 438.88 345.00 434.02 C 344.32 429.70 346.26 424.80 344.27 420.75 C 344.00 420.26 343.45 419.28 343.18 418.79 C 341.02 411.83 330.98 407.67 325.77 413.73 C 324.76 417.08 324.74 420.59 325.71 424.26 C 326.06 427.04 327.04 430.56 324.30 432.31 C 323.22 433.86 320.80 432.48 321.00 430.83 C 321.53 428.38 321.36 426.10 320.50 423.98 C 319.55 422.89 319.64 420.28 318.07 420.14 C 316.95 421.84 316.49 423.85 315.76 425.73 C 315.00 429.76 314.15 434.31 315.64 438.32 C 317.28 441.20 318.06 447.99 313.07 446.98 C 311.47 447.19 311.68 444.90 311.05 443.95 C 310.71 439.20 311.67 434.32 310.43 429.68 C 308.99 424.37 307.67 416.10 300.66 416.50 C 293.77 413.94 290.44 421.57 289.85 426.81 C 288.80 429.68 288.43 433.38 289.71 436.30 C 291.04 439.34 291.77 442.67 292.01 445.98 C 292.01 448.62 291.99 451.27 291.98 453.94 C 291.43 456.27 287.85 456.10 286.14 454.78 C 285.04 451.00 282.91 445.26 286.02 442.01 C 287.53 439.58 287.90 433.67 286.17 430.78 C 283.22 426.81 284.82 420.93 281.82 417.08 C 278.78 416.97 277.42 420.68 275.79 422.77 C 274.25 426.27 275.10 430.48 275.63 434.17 C 275.91 436.03 276.05 437.91 276.20 439.79 C 275.12 444.42 266.56 442.54 267.00 438.02 C 266.30 433.38 268.39 428.07 266.21 423.76 C 263.45 418.93 257.30 416.82 256.01 410.95 C 255.98 407.95 255.99 405.03 256.05 402.06 C 258.31 395.09 261.79 388.28 267.78 383.80 C 270.98 380.91 275.39 381.38 279.31 380.40 C 286.18 377.00 288.18 393.91 280.26 390.78 C 278.29 388.84 276.43 385.86 273.19 387.14 C 267.40 392.57 262.67 399.89 262.00 407.95 C 263.39 411.48 266.41 415.78 271.02 414.03 C 276.49 414.82 278.68 406.68 284.63 409.34 C 285.33 409.86 286.05 410.38 286.78 410.90 C 292.03 400.86 297.11 390.69 303.18 381.11 C 304.74 381.04 306.99 380.36 307.72 382.27 C 308.82 386.37 309.41 390.60 311.55 394.34 C 311.47 398.88 314.70 402.54 314.99 406.90 C 314.42 409.55 316.21 411.76 318.99 411.06 C 319.24 407.23 319.01 403.45 318.30 399.72 C 318.23 398.05 318.07 394.69 317.99 393.01 C 317.99 388.72 317.99 384.45 318.04 380.17 C 318.95 378.82 323.11 378.01 322.99 380.00 C 323.92 384.25 321.24 390.73 323.94 394.10 C 325.73 395.67 326.63 393.92 327.43 392.38 C 331.97 387.39 334.57 378.31 341.95 377.07 C 344.18 378.92 344.16 381.18 342.17 383.23 C 339.82 383.49 338.97 385.97 339.17 388.04 C 336.26 392.68 331.17 395.64 329.07 400.85 C 330.96 402.62 332.77 404.61 335.13 405.81 C 339.71 407.98 342.81 412.56 347.68 414.20 L 347.71 413.33 C 347.66 408.15 348.86 402.79 347.34 397.73 C 346.90 392.43 347.33 387.01 346.14 381.80 C 345.16 379.61 344.95 377.28 346.07 375.10 M 302.22 394.10 C 301.22 397.10 299.86 399.96 298.88 402.96 C 299.68 402.21 307.36 403.79 305.81 400.07 C 304.96 397.99 305.53 393.46 302.22 394.10 Z" />
</g>
<g id="#321b06b1">
<path fill="#321b06" opacity="0.69" d=" M 358.75 378.74 C 362.60 376.80 367.17 378.51 371.21 378.75 C 367.04 378.80 362.89 378.80 358.75 378.74 Z" />
</g>
<g id="#130c0538">
<path fill="#130c05" opacity="0.22" d=" M 356.69 379.68 C 357.20 379.44 358.23 378.97 358.75 378.74 C 362.89 378.80 367.04 378.80 371.21 378.75 C 371.60 378.79 372.40 378.87 372.80 378.91 L 373.06 379.89 C 367.59 380.13 362.13 380.06 356.69 379.68 Z" />
</g>
<g id="#2914048a">
<path fill="#291404" opacity="0.54" d=" M 317.07 379.97 L 318.04 380.17 C 317.99 384.45 317.99 388.72 317.99 393.01 L 317.03 392.99 C 316.95 388.64 316.85 384.30 317.07 379.97 Z" />
</g>
<g id="#2d180596">
<path fill="#2d1805" opacity="0.59" d=" M 322.99 380.00 L 323.98 380.00 C 323.98 381.75 324.00 385.25 324.00 387.00 C 323.99 388.78 323.96 392.32 323.94 394.10 C 321.24 390.73 323.92 384.25 322.99 380.00 Z" />
</g>
<g id="#09060314">
<path fill="#090603" opacity="0.08" d=" M 126.01 381.02 C 131.33 380.92 136.66 380.92 141.99 381.02 L 142.00 381.98 C 136.66 382.00 131.32 382.00 125.98 382.00 L 126.01 381.02 Z" />
</g>
<g id="#2612048e">
<path fill="#261204" opacity="0.56" d=" M 124.93 383.01 C 125.20 382.76 125.72 382.25 125.98 382.00 C 131.32 382.00 136.66 382.00 142.00 381.98 C 143.73 381.55 144.73 381.89 145.02 383.00 C 138.42 383.67 131.30 381.51 124.97 383.93 L 124.93 383.01 Z" />
</g>
<g id="#2212048c">
<path fill="#221204" opacity="0.55" d=" M 171.00 382.03 C 178.66 382.02 186.32 381.83 193.98 382.05 L 194.02 383.01 C 186.34 382.97 178.67 383.00 171.01 383.01 L 171.00 382.03 Z" />
</g>
<g id="#2312018d">
<path fill="#231201" opacity="0.55" d=" M 209.02 382.06 C 211.76 382.05 217.25 382.03 220.00 382.02 L 219.97 382.99 C 216.62 382.97 213.30 382.96 209.96 383.09 L 208.96 383.11 L 209.02 382.06 Z" />
</g>
<g id="#2814039a">
<path fill="#281403" opacity="0.60" d=" M 235.00 382.01 C 237.50 382.26 242.50 382.76 245.00 383.00 C 241.66 382.97 238.36 383.01 235.04 383.00 L 235.00 382.01 Z" />
</g>
<g id="#19110742">
<path fill="#191107" opacity="0.26" d=" M 346.14 381.80 C 347.33 387.01 346.90 392.43 347.34 397.73 C 347.16 399.62 346.79 403.39 346.60 405.27 C 345.17 397.56 346.36 389.59 346.14 381.80 Z" />
</g>
<g id="#1d13095f">
<path fill="#1d1309" opacity="0.37" d=" M 124.02 383.01 L 124.93 383.01 L 124.97 383.93 C 125.00 385.53 125.10 387.13 125.26 388.74 C 125.05 395.88 124.81 403.05 125.12 410.20 L 124.09 409.92 C 123.87 400.95 123.98 391.97 124.02 383.01 Z" />
</g>
<g id="#44280ff8">
<path fill="#44280f" opacity="0.97" d=" M 124.97 383.93 C 131.30 381.51 138.42 383.67 145.02 383.00 C 150.12 383.63 155.69 384.64 158.79 389.20 C 162.03 391.97 162.40 396.49 164.01 400.20 C 164.00 401.85 163.98 405.14 163.98 406.79 C 162.55 414.97 157.07 423.71 148.02 424.01 C 142.28 424.22 136.36 423.37 130.73 424.75 C 128.82 424.92 126.91 424.99 124.99 425.01 C 125.03 420.40 124.93 415.82 125.20 411.24 C 125.95 403.85 127.04 396.02 125.26 388.74 C 125.10 387.13 125.00 385.53 124.97 383.93 M 137.00 390.99 C 136.75 391.25 136.25 391.75 136.00 392.00 L 135.05 392.02 C 134.84 399.68 135.01 407.34 135.04 415.01 L 136.01 414.96 C 135.92 416.50 137.69 417.23 139.00 417.03 C 143.97 417.74 150.32 415.02 151.99 409.97 C 152.24 409.48 152.75 408.50 153.01 408.01 L 153.96 407.97 C 153.24 405.57 156.25 399.02 153.01 399.00 C 152.76 398.74 152.26 398.23 152.01 397.98 C 151.94 394.45 147.81 392.43 144.96 391.01 L 144.99 390.06 C 142.60 390.46 137.86 388.77 137.00 390.99 Z" />
</g>
<g id="#2b1a09a2">
<path fill="#2b1a09" opacity="0.64" d=" M 170.00 384.00 C 170.26 383.75 170.76 383.25 171.01 383.01 C 170.98 392.33 171.04 401.66 170.98 411.00 L 170.02 411.00 C 170.01 410.25 169.99 408.75 169.98 408.00 C 169.97 402.65 169.99 397.34 170.00 392.00 C 170.01 389.32 170.01 386.65 170.00 384.00 Z" />
</g>
<g id="#44290ff8">
<path fill="#44290f" opacity="0.97" d=" M 171.01 383.01 C 178.67 383.00 186.34 382.97 194.02 383.01 C 197.90 383.78 203.46 385.49 204.01 389.97 C 204.00 393.64 204.01 397.35 204.00 401.04 C 204.10 404.31 199.74 405.22 199.01 408.06 C 199.00 414.28 205.45 418.79 204.99 425.02 C 204.30 424.95 202.91 424.81 202.22 424.75 C 199.49 424.37 196.81 424.11 194.08 423.93 L 193.25 423.84 C 192.14 419.06 190.01 414.59 187.67 410.32 C 185.96 409.12 183.66 408.36 181.74 409.58 L 180.93 409.96 C 179.70 412.89 179.62 416.27 180.69 420.11 C 180.88 421.68 181.04 423.25 181.21 424.83 C 179.46 424.84 175.95 424.85 174.20 424.86 C 173.20 424.45 172.20 424.03 171.21 423.61 C 170.97 419.39 171.01 415.20 170.98 411.00 C 171.04 401.66 170.98 392.33 171.01 383.01 M 181.00 390.01 L 181.00 391.00 L 180.02 391.01 C 180.02 393.76 180.02 399.25 180.01 402.00 L 181.00 402.00 L 181.00 402.99 L 181.02 403.95 C 183.42 403.53 188.11 405.21 189.01 403.01 C 189.50 403.00 190.50 402.97 190.99 402.96 L 190.98 401.99 C 195.09 400.43 194.69 392.96 190.91 391.01 C 188.43 390.76 183.48 390.26 181.00 390.01 Z" />
</g>
<g id="#130c062b">
<path fill="#130c06" opacity="0.17" d=" M 208.96 389.84 C 207.16 389.01 207.18 383.97 208.96 383.11 C 208.96 384.79 208.96 388.16 208.96 389.84 Z" />
</g>
<g id="#331c07af">
<path fill="#331c07" opacity="0.69" d=" M 208.96 383.11 L 209.96 383.09 C 209.97 387.05 209.98 391.03 209.99 395.02 C 207.88 394.98 209.43 391.34 208.96 389.84 C 208.96 388.16 208.96 384.79 208.96 383.11 Z" />
</g>
<g id="#43290ff8">
<path fill="#43290f" opacity="0.97" d=" M 209.96 383.09 C 213.30 382.96 216.62 382.97 219.97 382.99 C 220.42 386.28 219.05 390.18 220.82 393.22 C 222.42 395.89 223.77 398.80 226.23 400.82 C 230.40 402.10 231.06 396.56 233.22 394.29 C 233.44 393.99 233.88 393.41 234.11 393.11 C 235.60 390.10 234.74 386.31 235.04 383.00 C 238.36 383.01 241.66 382.97 245.00 383.00 C 245.00 386.98 244.99 390.96 244.97 394.96 C 242.49 401.31 238.76 407.03 233.82 411.75 C 233.58 412.03 233.10 412.58 232.86 412.86 C 231.14 416.53 232.79 421.19 231.10 425.03 C 228.35 425.04 225.61 425.04 222.87 425.04 C 221.49 420.75 223.25 415.77 221.20 411.76 C 218.72 407.65 215.06 404.36 212.97 400.02 C 212.21 398.19 209.73 397.24 209.99 395.02 C 209.98 391.03 209.97 387.05 209.96 383.09 Z" />
</g>
<g id="#2212037a">
<path fill="#221203" opacity="0.48" d=" M 219.97 382.99 C 222.94 383.77 220.29 390.36 220.82 393.22 C 219.05 390.18 220.42 386.28 219.97 382.99 Z" />
</g>
<g id="#180f073f">
<path fill="#180f07" opacity="0.25" d=" M 233.00 383.00 L 234.00 382.99 C 233.99 386.34 234.05 389.75 234.11 393.11 C 233.88 393.41 233.44 393.99 233.22 394.29 C 233.16 391.47 233.05 385.82 233.00 383.00 Z" />
</g>
<g id="#3a210bc7">
<path fill="#3a210b" opacity="0.78" d=" M 234.00 382.99 L 235.04 383.00 C 234.74 386.31 235.60 390.10 234.11 393.11 C 234.05 389.75 233.99 386.34 234.00 382.99 Z" />
</g>
<g id="#2915039d">
<path fill="#291503" opacity="0.62" d=" M 245.00 383.00 L 245.98 383.00 C 244.81 386.00 248.10 393.78 244.97 394.96 C 244.99 390.96 245.00 386.98 245.00 383.00 Z" />
</g>
<g id="#2e1c0c9d">
<path fill="#2e1c0c" opacity="0.62" d=" M 339.17 388.04 C 338.97 385.97 339.82 383.49 342.17 383.23 C 341.77 385.14 341.05 387.14 339.17 388.04 Z" />
</g>
<g id="#130d072f">
<path fill="#130d07" opacity="0.18" d=" M 169.05 384.02 L 170.00 384.00 C 170.01 386.65 170.01 389.32 170.00 392.00 C 167.77 391.15 169.47 386.41 169.05 384.02 Z" />
</g>
<g id="#170e073b">
<path fill="#170e07" opacity="0.23" d=" M 324.00 387.00 C 327.35 386.67 322.53 395.07 327.43 392.38 C 326.63 393.92 325.73 395.67 323.94 394.10 C 323.96 392.32 323.99 388.78 324.00 387.00 Z" />
</g>
<g id="#3b2109de">
<path fill="#3b2109" opacity="0.87" d=" M 125.26 388.74 C 127.04 396.02 125.95 403.85 125.20 411.24 L 125.12 410.20 C 124.81 403.05 125.05 395.88 125.26 388.74 Z" />
</g>
<g id="#2819069c">
<path fill="#281906" opacity="0.61" d=" M 137.00 390.99 C 137.86 388.77 142.60 390.46 144.99 390.06 L 144.96 391.01 C 142.31 390.98 139.65 390.98 137.00 390.99 Z" />
</g>
<g id="#2515028f">
<path fill="#251502" opacity="0.56" d=" M 181.00 390.01 C 183.48 390.26 188.43 390.76 190.91 391.01 C 187.59 390.96 184.31 391.00 181.00 391.00 L 181.00 390.01 Z" />
</g>
<g id="#381f0dbf">
<path fill="#381f0d" opacity="0.75" d=" M 204.01 389.97 L 205.01 390.05 C 205.02 390.57 205.04 391.63 205.05 392.15 C 205.05 393.83 205.05 397.17 205.05 398.85 C 204.79 399.39 204.26 400.49 204.00 401.04 C 204.01 397.35 204.00 393.64 204.01 389.97 Z" />
</g>
<g id="#28180692">
<path fill="#281806" opacity="0.57" d=" M 180.02 391.01 L 181.00 391.00 C 180.99 394.64 181.00 398.34 181.00 402.00 L 180.01 402.00 C 180.02 399.25 180.02 393.76 180.02 391.01 Z" />
</g>
<g id="#281301a0">
<path fill="#281301" opacity="0.63" d=" M 135.05 392.02 L 136.00 392.00 C 136.01 399.65 135.97 407.30 136.01 414.96 L 135.04 415.01 C 135.01 407.34 134.84 399.68 135.05 392.02 Z" />
</g>
<g id="#19100941">
<path fill="#191009" opacity="0.25" d=" M 205.05 392.15 C 206.84 392.95 206.84 398.04 205.05 398.85 C 205.05 397.17 205.05 393.83 205.05 392.15 Z" />
</g>
<g id="#1c110843">
<path fill="#1c1108" opacity="0.26" d=" M 317.03 392.99 L 317.99 393.01 C 318.07 394.69 318.23 398.05 318.30 399.72 C 318.17 401.48 318.06 403.24 318.00 405.01 L 317.02 405.00 C 316.91 400.99 316.91 396.99 317.03 392.99 Z" />
</g>
<g id="#0e090522">
<path fill="#0e0905" opacity="0.13" d=" M 302.22 394.10 C 305.53 393.46 304.96 397.99 305.81 400.07 C 307.36 403.79 299.68 402.21 298.88 402.96 C 299.86 399.96 301.22 397.10 302.22 394.10 Z" />
</g>
<g id="#1d11065b">
<path fill="#1d1106" opacity="0.36" d=" M 152.01 397.98 C 152.26 398.23 152.76 398.74 153.01 399.00 C 152.99 401.97 152.99 405.01 153.01 408.01 C 152.75 408.50 152.24 409.48 151.99 409.97 C 152.01 405.96 152.02 401.96 152.01 397.98 Z" />
</g>
<g id="#331e09ad">
<path fill="#331e09" opacity="0.68" d=" M 347.34 397.73 C 348.86 402.79 347.66 408.15 347.71 413.33 C 346.94 410.72 346.87 407.93 346.60 405.27 C 346.79 403.39 347.16 399.62 347.34 397.73 Z" />
</g>
<g id="#3a2208d2">
<path fill="#3a2208" opacity="0.82" d=" M 153.01 399.00 C 156.25 399.02 153.24 405.57 153.96 407.97 L 153.01 408.01 C 152.99 405.01 152.99 401.97 153.01 399.00 Z" />
</g>
<g id="#160f0547">
<path fill="#160f05" opacity="0.28" d=" M 164.01 400.20 C 165.82 400.91 165.85 406.12 163.98 406.79 C 163.98 405.14 164.00 401.85 164.01 400.20 Z" />
</g>
<g id="#341e09b0">
<path fill="#341e09" opacity="0.69" d=" M 318.30 399.72 C 319.01 403.45 319.24 407.23 318.99 411.06 C 316.21 411.76 314.42 409.55 314.99 406.90 C 316.18 407.77 316.50 409.53 317.93 410.11 C 318.00 408.40 317.96 406.70 318.00 405.01 C 318.06 403.24 318.17 401.48 318.30 399.72 Z" />
</g>
<g id="#1e0f026c">
<path fill="#1e0f02" opacity="0.42" d=" M 181.00 402.00 C 184.33 402.01 187.64 401.97 190.98 401.99 L 190.99 402.96 C 190.50 402.97 189.50 403.00 189.01 403.01 C 186.33 402.99 183.66 402.98 181.00 402.99 L 181.00 402.00 Z" />
</g>
<g id="#160f0737">
<path fill="#160f07" opacity="0.22" d=" M 255.06 402.00 L 256.05 402.06 C 255.99 405.03 255.98 407.95 256.01 410.95 C 252.73 411.08 255.75 404.37 255.06 402.00 Z" />
</g>
<g id="#402409d9">
<path fill="#402409" opacity="0.85" d=" M 181.00 402.99 C 183.66 402.98 186.33 402.99 189.01 403.01 C 188.11 405.21 183.42 403.53 181.02 403.95 L 181.00 402.99 Z" />
</g>
<g id="#1810083d">
<path fill="#181008" opacity="0.24" d=" M 169.03 408.02 L 169.98 408.00 C 169.99 408.75 170.01 410.25 170.02 411.00 C 169.99 415.65 170.00 420.33 170.00 425.00 L 169.02 425.00 C 168.99 419.33 168.85 413.67 169.03 408.02 Z" />
</g>
<g id="#2b19098a">
<path fill="#2b1909" opacity="0.54" d=" M 355.30 410.04 C 361.43 408.69 367.75 408.90 373.99 409.02 L 374.00 410.00 C 368.94 410.02 363.91 409.85 358.87 410.03 C 359.59 411.66 362.13 410.48 363.00 411.98 C 360.60 412.22 358.22 412.46 355.85 412.68 C 355.66 411.79 355.48 410.92 355.30 410.04 Z" />
</g>
<g id="#27190786">
<path fill="#271907" opacity="0.53" d=" M 124.09 409.92 L 125.12 410.20 L 125.20 411.24 C 124.93 415.82 125.03 420.40 124.99 425.01 L 124.02 425.04 C 123.98 419.98 123.82 414.95 124.09 409.92 Z" />
</g>
<g id="#391e0ac9">
<path fill="#391e0a" opacity="0.79" d=" M 180.69 420.11 C 179.62 416.27 179.70 412.89 180.93 409.96 C 180.97 412.70 181.03 415.46 181.08 418.23 C 180.98 418.70 180.79 419.64 180.69 420.11 Z" />
</g>
<g id="#150e0734">
<path fill="#150e07" opacity="0.20" d=" M 180.93 409.96 L 181.74 409.58 C 182.08 412.40 182.26 415.31 181.68 418.12 L 181.08 418.23 C 181.03 415.46 180.97 412.70 180.93 409.96 Z" />
</g>
<g id="#40260eeb">
<path fill="#40260e" opacity="0.92" d=" M 358.87 410.03 C 363.91 409.85 368.94 410.02 374.00 410.00 C 376.83 411.05 373.52 415.51 372.73 417.71 C 371.41 422.75 371.87 428.17 372.67 433.28 C 373.04 436.47 374.28 439.45 375.60 442.35 C 379.65 447.46 369.13 452.38 368.00 446.96 C 367.96 443.93 367.98 440.99 368.05 438.00 C 368.10 437.56 368.20 436.69 368.26 436.25 C 368.74 432.14 369.84 427.71 368.36 423.69 C 367.14 419.49 366.22 415.11 363.00 411.98 C 362.13 410.48 359.59 411.66 358.87 410.03 Z" />
</g>
<g id="#39220dd0">
<path fill="#39220d" opacity="0.82" d=" M 170.02 411.00 L 170.98 411.00 C 171.01 415.20 170.97 419.39 171.21 423.61 C 172.20 424.03 173.20 424.45 174.20 424.86 C 173.40 424.89 171.81 424.95 171.01 424.99 L 170.00 425.00 C 170.00 420.33 169.99 415.65 170.02 411.00 Z" />
</g>
<g id="#2d1904a2">
<path fill="#2d1904" opacity="0.64" d=" M 221.20 411.76 C 223.25 415.77 221.49 420.75 222.87 425.04 L 221.97 425.04 L 221.03 425.02 C 221.01 420.58 220.78 416.16 221.20 411.76 Z" />
</g>
<g id="#19100940">
<path fill="#191009" opacity="0.25" d=" M 232.86 412.86 C 233.10 412.58 233.58 412.03 233.82 411.75 C 233.98 416.14 234.15 420.57 233.97 424.98 L 232.99 425.02 C 232.95 420.96 232.90 416.90 232.86 412.86 Z" />
</g>
<g id="#371e07ca">
<path fill="#371e07" opacity="0.79" d=" M 231.10 425.03 C 232.79 421.19 231.14 416.53 232.86 412.86 C 232.90 416.90 232.95 420.96 232.99 425.02 L 232.02 425.04 L 231.10 425.03 Z" />
</g>
<g id="#2718078d">
<path fill="#271807" opacity="0.55" d=" M 325.71 424.26 C 324.74 420.59 324.76 417.08 325.77 413.73 C 325.97 417.20 326.23 420.78 325.71 424.26 Z" />
</g>
<g id="#1e110265">
<path fill="#1e1102" opacity="0.40" d=" M 181.08 418.23 L 181.68 418.12 C 182.14 420.06 182.70 423.52 181.21 424.83 C 181.04 423.25 180.88 421.68 180.69 420.11 C 180.79 419.64 180.98 418.70 181.08 418.23 Z" />
</g>
<g id="#2f1d0b99">
<path fill="#2f1d0b" opacity="0.60" d=" M 372.67 433.28 C 371.87 428.17 371.41 422.75 372.73 417.71 C 372.91 422.87 373.43 428.13 372.67 433.28 Z" />
</g>
<g id="#19110a38">
<path fill="#19110a" opacity="0.22" d=" M 343.18 418.79 C 343.45 419.28 344.00 420.26 344.27 420.75 C 344.14 424.82 344.04 428.90 343.98 433.00 L 343.01 433.00 C 342.99 428.25 342.79 423.52 343.18 418.79 Z" />
</g>
<g id="#381f08c1">
<path fill="#381f08" opacity="0.76" d=" M 344.27 420.75 C 346.26 424.80 344.32 429.70 345.00 434.02 C 344.75 433.76 344.24 433.25 343.98 433.00 C 344.04 428.90 344.14 424.82 344.27 420.75 Z" />
</g>
<g id="#321d06a0">
<path fill="#321d06" opacity="0.63" d=" M 275.63 434.17 C 275.10 430.48 274.25 426.27 275.79 422.77 C 275.93 426.26 276.19 429.83 275.95 433.35 L 275.63 434.17 Z" />
</g>
<g id="#381f08d2">
<path fill="#381f08" opacity="0.82" d=" M 130.73 424.75 C 136.36 423.37 142.28 424.22 148.02 424.01 C 147.76 424.26 147.25 424.76 147.00 425.01 C 141.57 424.95 136.14 425.17 130.73 424.75 Z" />
</g>
<g id="#361b06c9">
<path fill="#361b06" opacity="0.79" d=" M 194.08 423.93 C 196.81 424.11 199.49 424.37 202.22 424.75 C 200.41 424.80 196.81 424.92 195.00 424.98 L 193.98 424.98 L 194.08 423.93 Z" />
</g>
<g id="#1e130951">
<path fill="#1e1309" opacity="0.32" d=" M 266.21 423.76 C 268.39 428.07 266.30 433.38 267.00 438.02 L 266.02 437.99 C 266.00 433.23 265.76 428.49 266.21 423.76 Z" />
</g>
<g id="#351d06b9">
<path fill="#351d06" opacity="0.73" d=" M 320.50 423.98 C 321.36 426.10 321.53 428.38 321.00 430.83 C 318.85 429.92 319.68 425.83 320.50 423.98 Z" />
</g>
<g id="#1e140a4b">
<path fill="#1e140a" opacity="0.29" d=" M 368.36 423.69 C 369.84 427.71 368.74 432.14 368.26 436.25 C 367.90 432.05 367.94 427.86 368.36 423.69 Z" />
</g>
<g id="#1b0f0848">
<path fill="#1b0f08" opacity="0.28" d=" M 124.02 425.04 L 124.99 425.01 C 126.91 424.99 128.82 424.92 130.73 424.75 C 136.14 425.17 141.57 424.95 147.00 425.01 L 147.00 425.98 C 139.33 425.98 131.67 426.14 124.01 425.96 L 124.02 425.04 Z" />
</g>
<g id="#1f140d53">
<path fill="#1f140d" opacity="0.33" d=" M 171.01 424.99 C 171.81 424.95 173.40 424.89 174.20 424.86 C 175.95 424.85 179.46 424.84 181.21 424.83 L 180.96 425.91 C 178.47 425.68 173.50 425.22 171.01 424.99 Z" />
</g>
<g id="#1c120c46">
<path fill="#1c120c" opacity="0.27" d=" M 195.00 424.98 C 196.81 424.92 200.41 424.80 202.22 424.75 C 202.91 424.81 204.30 424.95 204.99 425.02 L 205.01 426.00 C 202.51 425.74 197.50 425.24 195.00 424.98 Z" />
</g>
<g id="#291b1170">
<path fill="#291b11" opacity="0.44" d=" M 221.97 425.04 L 222.87 425.04 C 225.61 425.04 228.35 425.04 231.10 425.03 L 232.02 425.04 L 232.00 425.99 C 229.49 425.76 224.48 425.28 221.97 425.04 Z" />
</g>
<g id="#311b08a6">
<path fill="#311b08" opacity="0.65" d=" M 315.64 438.32 C 314.15 434.31 315.00 429.76 315.76 425.73 C 316.09 429.92 316.05 434.12 315.64 438.32 Z" />
</g>
<g id="#351f0ba6">
<path fill="#351f0b" opacity="0.65" d=" M 289.71 436.30 C 288.43 433.38 288.80 429.68 289.85 426.81 C 289.94 429.94 290.19 433.16 289.71 436.30 Z" />
</g>
<g id="#1b100547">
<path fill="#1b1005" opacity="0.28" d=" M 353.04 427.15 C 354.85 427.93 354.85 433.05 353.04 433.83 C 353.04 432.16 353.04 428.82 353.04 427.15 Z" />
</g>
<g id="#39210eaf">
<path fill="#39210e" opacity="0.69" d=" M 310.43 429.68 C 311.67 434.32 310.71 439.20 311.05 443.95 L 310.04 444.01 C 310.11 439.23 309.49 434.40 310.43 429.68 Z" />
</g>
<g id="#351b03c3">
<path fill="#351b03" opacity="0.76" d=" M 286.17 430.78 C 287.90 433.67 287.53 439.58 286.02 442.01 C 285.95 438.24 285.88 434.52 286.17 430.78 Z" />
</g>
<g id="#21160b54">
<path fill="#21160b" opacity="0.33" d=" M 275.95 433.35 C 277.88 433.72 277.52 438.87 276.20 439.79 C 276.05 437.91 275.91 436.03 275.63 434.17 L 275.95 433.35 Z" />
</g>
<g id="#2813028f">
<path fill="#281302" opacity="0.56" d=" M 367.06 438.02 L 368.05 438.00 C 367.98 440.99 367.96 443.93 368.00 446.96 C 364.72 447.05 367.75 440.40 367.06 438.02 Z" />
</g>
<g id="#311a06a7">
<path fill="#311a06" opacity="0.65" d=" M 292.01 445.98 C 294.22 446.90 292.53 451.58 292.94 454.00 L 291.98 453.94 C 291.99 451.27 292.01 448.62 292.01 445.98 Z" />
</g>
</svg>
